<?xml version="1.0" encoding="utf-8"?>
<svg xmlns="http://www.w3.org/2000/svg" xmlns:xlink="http://www.w3.org/1999/xlink" width="600" height="400" viewBox="0 0 2400 1600">
<defs>
  <clipPath id="clip610">
    <rect x="0" y="0" width="2400" height="1600"/>
  </clipPath>
</defs>
<path clip-path="url(#clip610)" d="M0 1600 L2400 1600 L2400 0 L0 0  Z" fill="#ffffff" fill-rule="evenodd" fill-opacity="1"/>
<defs>
  <clipPath id="clip611">
    <rect x="480" y="0" width="1681" height="1600"/>
  </clipPath>
</defs>
<path clip-path="url(#clip610)" d="M86.9921 1505.26 L2352.76 1505.26 L2352.76 47.2441 L86.9921 47.2441  Z" fill="#ffffff" fill-rule="evenodd" fill-opacity="1"/>
<defs>
  <clipPath id="clip612">
    <rect x="86" y="47" width="2267" height="1459"/>
  </clipPath>
</defs>
<polyline clip-path="url(#clip610)" style="stroke:#000000; stroke-linecap:round; stroke-linejoin:round; stroke-width:4; stroke-opacity:1; fill:none" points="86.9921,1505.26 2352.76,1505.26 "/>
<polyline clip-path="url(#clip610)" style="stroke:#000000; stroke-linecap:round; stroke-linejoin:round; stroke-width:4; stroke-opacity:1; fill:none" points="86.9921,47.2441 2352.76,47.2441 "/>
<polyline clip-path="url(#clip610)" style="stroke:#000000; stroke-linecap:round; stroke-linejoin:round; stroke-width:4; stroke-opacity:1; fill:none" points="395.96,1505.26 395.96,1486.36 "/>
<polyline clip-path="url(#clip610)" style="stroke:#000000; stroke-linecap:round; stroke-linejoin:round; stroke-width:4; stroke-opacity:1; fill:none" points="910.906,1505.26 910.906,1486.36 "/>
<polyline clip-path="url(#clip610)" style="stroke:#000000; stroke-linecap:round; stroke-linejoin:round; stroke-width:4; stroke-opacity:1; fill:none" points="1425.85,1505.26 1425.85,1486.36 "/>
<polyline clip-path="url(#clip610)" style="stroke:#000000; stroke-linecap:round; stroke-linejoin:round; stroke-width:4; stroke-opacity:1; fill:none" points="1940.8,1505.26 1940.8,1486.36 "/>
<polyline clip-path="url(#clip610)" style="stroke:#000000; stroke-linecap:round; stroke-linejoin:round; stroke-width:4; stroke-opacity:1; fill:none" points="86.9921,1505.26 86.9921,1495.81 "/>
<polyline clip-path="url(#clip610)" style="stroke:#000000; stroke-linecap:round; stroke-linejoin:round; stroke-width:4; stroke-opacity:1; fill:none" points="189.981,1505.26 189.981,1495.81 "/>
<polyline clip-path="url(#clip610)" style="stroke:#000000; stroke-linecap:round; stroke-linejoin:round; stroke-width:4; stroke-opacity:1; fill:none" points="292.971,1505.26 292.971,1495.81 "/>
<polyline clip-path="url(#clip610)" style="stroke:#000000; stroke-linecap:round; stroke-linejoin:round; stroke-width:4; stroke-opacity:1; fill:none" points="498.949,1505.26 498.949,1495.81 "/>
<polyline clip-path="url(#clip610)" style="stroke:#000000; stroke-linecap:round; stroke-linejoin:round; stroke-width:4; stroke-opacity:1; fill:none" points="601.938,1505.26 601.938,1495.81 "/>
<polyline clip-path="url(#clip610)" style="stroke:#000000; stroke-linecap:round; stroke-linejoin:round; stroke-width:4; stroke-opacity:1; fill:none" points="704.928,1505.26 704.928,1495.81 "/>
<polyline clip-path="url(#clip610)" style="stroke:#000000; stroke-linecap:round; stroke-linejoin:round; stroke-width:4; stroke-opacity:1; fill:none" points="807.917,1505.26 807.917,1495.81 "/>
<polyline clip-path="url(#clip610)" style="stroke:#000000; stroke-linecap:round; stroke-linejoin:round; stroke-width:4; stroke-opacity:1; fill:none" points="1013.9,1505.26 1013.9,1495.81 "/>
<polyline clip-path="url(#clip610)" style="stroke:#000000; stroke-linecap:round; stroke-linejoin:round; stroke-width:4; stroke-opacity:1; fill:none" points="1116.88,1505.26 1116.88,1495.81 "/>
<polyline clip-path="url(#clip610)" style="stroke:#000000; stroke-linecap:round; stroke-linejoin:round; stroke-width:4; stroke-opacity:1; fill:none" points="1219.87,1505.26 1219.87,1495.81 "/>
<polyline clip-path="url(#clip610)" style="stroke:#000000; stroke-linecap:round; stroke-linejoin:round; stroke-width:4; stroke-opacity:1; fill:none" points="1322.86,1505.26 1322.86,1495.81 "/>
<polyline clip-path="url(#clip610)" style="stroke:#000000; stroke-linecap:round; stroke-linejoin:round; stroke-width:4; stroke-opacity:1; fill:none" points="1528.84,1505.26 1528.84,1495.81 "/>
<polyline clip-path="url(#clip610)" style="stroke:#000000; stroke-linecap:round; stroke-linejoin:round; stroke-width:4; stroke-opacity:1; fill:none" points="1631.83,1505.26 1631.83,1495.81 "/>
<polyline clip-path="url(#clip610)" style="stroke:#000000; stroke-linecap:round; stroke-linejoin:round; stroke-width:4; stroke-opacity:1; fill:none" points="1734.82,1505.26 1734.82,1495.81 "/>
<polyline clip-path="url(#clip610)" style="stroke:#000000; stroke-linecap:round; stroke-linejoin:round; stroke-width:4; stroke-opacity:1; fill:none" points="1837.81,1505.26 1837.81,1495.81 "/>
<polyline clip-path="url(#clip610)" style="stroke:#000000; stroke-linecap:round; stroke-linejoin:round; stroke-width:4; stroke-opacity:1; fill:none" points="2043.79,1505.26 2043.79,1495.81 "/>
<polyline clip-path="url(#clip610)" style="stroke:#000000; stroke-linecap:round; stroke-linejoin:round; stroke-width:4; stroke-opacity:1; fill:none" points="2146.78,1505.26 2146.78,1495.81 "/>
<polyline clip-path="url(#clip610)" style="stroke:#000000; stroke-linecap:round; stroke-linejoin:round; stroke-width:4; stroke-opacity:1; fill:none" points="2249.77,1505.26 2249.77,1495.81 "/>
<polyline clip-path="url(#clip610)" style="stroke:#000000; stroke-linecap:round; stroke-linejoin:round; stroke-width:4; stroke-opacity:1; fill:none" points="2352.76,1505.26 2352.76,1495.81 "/>
<path clip-path="url(#clip610)" d="M342.986 1550.83 L372.661 1550.83 L372.661 1554.77 L342.986 1554.77 L342.986 1550.83 Z" fill="#000000" fill-rule="nonzero" fill-opacity="1" /><path clip-path="url(#clip610)" d="M386.782 1563.72 L403.101 1563.72 L403.101 1567.66 L381.157 1567.66 L381.157 1563.72 Q383.819 1560.97 388.402 1556.34 Q393.009 1551.69 394.189 1550.35 Q396.434 1547.82 397.314 1546.09 Q398.217 1544.33 398.217 1542.64 Q398.217 1539.88 396.272 1538.15 Q394.351 1536.41 391.249 1536.41 Q389.05 1536.41 386.597 1537.17 Q384.166 1537.94 381.388 1539.49 L381.388 1534.77 Q384.212 1533.63 386.666 1533.05 Q389.12 1532.47 391.157 1532.47 Q396.527 1532.47 399.721 1535.16 Q402.916 1537.85 402.916 1542.34 Q402.916 1544.47 402.106 1546.39 Q401.319 1548.28 399.212 1550.88 Q398.634 1551.55 395.532 1554.77 Q392.43 1557.96 386.782 1563.72 Z" fill="#000000" fill-rule="nonzero" fill-opacity="1" /><path clip-path="url(#clip610)" d="M412.916 1561.78 L417.8 1561.78 L417.8 1567.66 L412.916 1567.66 L412.916 1561.78 Z" fill="#000000" fill-rule="nonzero" fill-opacity="1" /><path clip-path="url(#clip610)" d="M428.032 1533.1 L446.388 1533.1 L446.388 1537.04 L432.314 1537.04 L432.314 1545.51 Q433.332 1545.16 434.351 1545 Q435.369 1544.81 436.388 1544.81 Q442.175 1544.81 445.555 1547.98 Q448.934 1551.16 448.934 1556.57 Q448.934 1562.15 445.462 1565.25 Q441.99 1568.33 435.67 1568.33 Q433.494 1568.33 431.226 1567.96 Q428.981 1567.59 426.573 1566.85 L426.573 1562.15 Q428.656 1563.28 430.879 1563.84 Q433.101 1564.4 435.578 1564.4 Q439.582 1564.4 441.92 1562.29 Q444.258 1560.18 444.258 1556.57 Q444.258 1552.96 441.92 1550.85 Q439.582 1548.75 435.578 1548.75 Q433.703 1548.75 431.828 1549.16 Q429.976 1549.58 428.032 1550.46 L428.032 1533.1 Z" fill="#000000" fill-rule="nonzero" fill-opacity="1" /><path clip-path="url(#clip610)" d="M888.291 1536.18 Q884.68 1536.18 882.851 1539.74 Q881.045 1543.28 881.045 1550.41 Q881.045 1557.52 882.851 1561.09 Q884.68 1564.63 888.291 1564.63 Q891.925 1564.63 893.73 1561.09 Q895.559 1557.52 895.559 1550.41 Q895.559 1543.28 893.73 1539.74 Q891.925 1536.18 888.291 1536.18 M888.291 1532.47 Q894.101 1532.47 897.156 1537.08 Q900.235 1541.66 900.235 1550.41 Q900.235 1559.14 897.156 1563.75 Q894.101 1568.33 888.291 1568.33 Q882.48 1568.33 879.402 1563.75 Q876.346 1559.14 876.346 1550.41 Q876.346 1541.66 879.402 1537.08 Q882.48 1532.47 888.291 1532.47 Z" fill="#000000" fill-rule="nonzero" fill-opacity="1" /><path clip-path="url(#clip610)" d="M908.453 1561.78 L913.337 1561.78 L913.337 1567.66 L908.453 1567.66 L908.453 1561.78 Z" fill="#000000" fill-rule="nonzero" fill-opacity="1" /><path clip-path="url(#clip610)" d="M933.522 1536.18 Q929.911 1536.18 928.082 1539.74 Q926.277 1543.28 926.277 1550.41 Q926.277 1557.52 928.082 1561.09 Q929.911 1564.63 933.522 1564.63 Q937.156 1564.63 938.962 1561.09 Q940.79 1557.52 940.79 1550.41 Q940.79 1543.28 938.962 1539.74 Q937.156 1536.18 933.522 1536.18 M933.522 1532.47 Q939.332 1532.47 942.388 1537.08 Q945.466 1541.66 945.466 1550.41 Q945.466 1559.14 942.388 1563.75 Q939.332 1568.33 933.522 1568.33 Q927.712 1568.33 924.633 1563.75 Q921.577 1559.14 921.577 1550.41 Q921.577 1541.66 924.633 1537.08 Q927.712 1532.47 933.522 1532.47 Z" fill="#000000" fill-rule="nonzero" fill-opacity="1" /><path clip-path="url(#clip610)" d="M1397.59 1563.72 L1413.91 1563.72 L1413.91 1567.66 L1391.96 1567.66 L1391.96 1563.72 Q1394.63 1560.97 1399.21 1556.34 Q1403.82 1551.69 1405 1550.35 Q1407.24 1547.82 1408.12 1546.09 Q1409.02 1544.33 1409.02 1542.64 Q1409.02 1539.88 1407.08 1538.15 Q1405.16 1536.41 1402.06 1536.41 Q1399.86 1536.41 1397.4 1537.17 Q1394.97 1537.94 1392.2 1539.49 L1392.2 1534.77 Q1395.02 1533.63 1397.47 1533.05 Q1399.93 1532.47 1401.96 1532.47 Q1407.33 1532.47 1410.53 1535.16 Q1413.72 1537.85 1413.72 1542.34 Q1413.72 1544.47 1412.91 1546.39 Q1412.13 1548.28 1410.02 1550.88 Q1409.44 1551.55 1406.34 1554.77 Q1403.24 1557.96 1397.59 1563.72 Z" fill="#000000" fill-rule="nonzero" fill-opacity="1" /><path clip-path="url(#clip610)" d="M1423.72 1561.78 L1428.61 1561.78 L1428.61 1567.66 L1423.72 1567.66 L1423.72 1561.78 Z" fill="#000000" fill-rule="nonzero" fill-opacity="1" /><path clip-path="url(#clip610)" d="M1438.84 1533.1 L1457.19 1533.1 L1457.19 1537.04 L1443.12 1537.04 L1443.12 1545.51 Q1444.14 1545.16 1445.16 1545 Q1446.18 1544.81 1447.2 1544.81 Q1452.98 1544.81 1456.36 1547.98 Q1459.74 1551.16 1459.74 1556.57 Q1459.74 1562.15 1456.27 1565.25 Q1452.8 1568.33 1446.48 1568.33 Q1444.3 1568.33 1442.03 1567.96 Q1439.79 1567.59 1437.38 1566.85 L1437.38 1562.15 Q1439.46 1563.28 1441.69 1563.84 Q1443.91 1564.4 1446.38 1564.4 Q1450.39 1564.4 1452.73 1562.29 Q1455.07 1560.18 1455.07 1556.57 Q1455.07 1552.96 1452.73 1550.85 Q1450.39 1548.75 1446.38 1548.75 Q1444.51 1548.75 1442.63 1549.16 Q1440.78 1549.58 1438.84 1550.46 L1438.84 1533.1 Z" fill="#000000" fill-rule="nonzero" fill-opacity="1" /><path clip-path="url(#clip610)" d="M1907.96 1533.1 L1926.32 1533.1 L1926.32 1537.04 L1912.25 1537.04 L1912.25 1545.51 Q1913.26 1545.16 1914.28 1545 Q1915.3 1544.81 1916.32 1544.81 Q1922.11 1544.81 1925.49 1547.98 Q1928.87 1551.16 1928.87 1556.57 Q1928.87 1562.15 1925.39 1565.25 Q1921.92 1568.33 1915.6 1568.33 Q1913.43 1568.33 1911.16 1567.96 Q1908.91 1567.59 1906.51 1566.85 L1906.51 1562.15 Q1908.59 1563.28 1910.81 1563.84 Q1913.03 1564.4 1915.51 1564.4 Q1919.51 1564.4 1921.85 1562.29 Q1924.19 1560.18 1924.19 1556.57 Q1924.19 1552.96 1921.85 1550.85 Q1919.51 1548.75 1915.51 1548.75 Q1913.63 1548.75 1911.76 1549.16 Q1909.91 1549.58 1907.96 1550.46 L1907.96 1533.1 Z" fill="#000000" fill-rule="nonzero" fill-opacity="1" /><path clip-path="url(#clip610)" d="M1938.08 1561.78 L1942.96 1561.78 L1942.96 1567.66 L1938.08 1567.66 L1938.08 1561.78 Z" fill="#000000" fill-rule="nonzero" fill-opacity="1" /><path clip-path="url(#clip610)" d="M1963.15 1536.18 Q1959.54 1536.18 1957.71 1539.74 Q1955.9 1543.28 1955.9 1550.41 Q1955.9 1557.52 1957.71 1561.09 Q1959.54 1564.63 1963.15 1564.63 Q1966.78 1564.63 1968.59 1561.09 Q1970.42 1557.52 1970.42 1550.41 Q1970.42 1543.28 1968.59 1539.74 Q1966.78 1536.18 1963.15 1536.18 M1963.15 1532.47 Q1968.96 1532.47 1972.01 1537.08 Q1975.09 1541.66 1975.09 1550.41 Q1975.09 1559.14 1972.01 1563.75 Q1968.96 1568.33 1963.15 1568.33 Q1957.34 1568.33 1954.26 1563.75 Q1951.2 1559.14 1951.2 1550.41 Q1951.2 1541.66 1954.26 1537.08 Q1957.34 1532.47 1963.15 1532.47 Z" fill="#000000" fill-rule="nonzero" fill-opacity="1" /><path clip-path="url(#clip610)" d="M2238.8 1614.48 L2225.91 1631.82 L2239.47 1650.12 L2232.56 1650.12 L2222.18 1636.12 L2211.81 1650.12 L2204.9 1650.12 L2218.75 1631.47 L2206.08 1614.48 L2212.99 1614.48 L2222.44 1627.18 L2231.89 1614.48 L2238.8 1614.48 Z" fill="#000000" fill-rule="nonzero" fill-opacity="1" /><polyline clip-path="url(#clip610)" style="stroke:#000000; stroke-linecap:round; stroke-linejoin:round; stroke-width:4; stroke-opacity:1; fill:none" points="86.9921,1505.26 86.9921,47.2441 "/>
<polyline clip-path="url(#clip610)" style="stroke:#000000; stroke-linecap:round; stroke-linejoin:round; stroke-width:4; stroke-opacity:1; fill:none" points="2352.76,1505.26 2352.76,47.2441 "/>
<polyline clip-path="url(#clip610)" style="stroke:#000000; stroke-linecap:round; stroke-linejoin:round; stroke-width:4; stroke-opacity:1; fill:none" points="86.9921,1505.26 105.89,1505.26 "/>
<polyline clip-path="url(#clip610)" style="stroke:#000000; stroke-linecap:round; stroke-linejoin:round; stroke-width:4; stroke-opacity:1; fill:none" points="86.9921,1176.32 105.89,1176.32 "/>
<polyline clip-path="url(#clip610)" style="stroke:#000000; stroke-linecap:round; stroke-linejoin:round; stroke-width:4; stroke-opacity:1; fill:none" points="86.9921,847.371 105.89,847.371 "/>
<polyline clip-path="url(#clip610)" style="stroke:#000000; stroke-linecap:round; stroke-linejoin:round; stroke-width:4; stroke-opacity:1; fill:none" points="86.9921,518.426 105.89,518.426 "/>
<polyline clip-path="url(#clip610)" style="stroke:#000000; stroke-linecap:round; stroke-linejoin:round; stroke-width:4; stroke-opacity:1; fill:none" points="86.9921,189.482 105.89,189.482 "/>
<polyline clip-path="url(#clip610)" style="stroke:#000000; stroke-linecap:round; stroke-linejoin:round; stroke-width:4; stroke-opacity:1; fill:none" points="86.9921,1439.47 96.4409,1439.47 "/>
<polyline clip-path="url(#clip610)" style="stroke:#000000; stroke-linecap:round; stroke-linejoin:round; stroke-width:4; stroke-opacity:1; fill:none" points="86.9921,1373.68 96.4409,1373.68 "/>
<polyline clip-path="url(#clip610)" style="stroke:#000000; stroke-linecap:round; stroke-linejoin:round; stroke-width:4; stroke-opacity:1; fill:none" points="86.9921,1307.89 96.4409,1307.89 "/>
<polyline clip-path="url(#clip610)" style="stroke:#000000; stroke-linecap:round; stroke-linejoin:round; stroke-width:4; stroke-opacity:1; fill:none" points="86.9921,1242.1 96.4409,1242.1 "/>
<polyline clip-path="url(#clip610)" style="stroke:#000000; stroke-linecap:round; stroke-linejoin:round; stroke-width:4; stroke-opacity:1; fill:none" points="86.9921,1110.53 96.4409,1110.53 "/>
<polyline clip-path="url(#clip610)" style="stroke:#000000; stroke-linecap:round; stroke-linejoin:round; stroke-width:4; stroke-opacity:1; fill:none" points="86.9921,1044.74 96.4409,1044.74 "/>
<polyline clip-path="url(#clip610)" style="stroke:#000000; stroke-linecap:round; stroke-linejoin:round; stroke-width:4; stroke-opacity:1; fill:none" points="86.9921,978.949 96.4409,978.949 "/>
<polyline clip-path="url(#clip610)" style="stroke:#000000; stroke-linecap:round; stroke-linejoin:round; stroke-width:4; stroke-opacity:1; fill:none" points="86.9921,913.16 96.4409,913.16 "/>
<polyline clip-path="url(#clip610)" style="stroke:#000000; stroke-linecap:round; stroke-linejoin:round; stroke-width:4; stroke-opacity:1; fill:none" points="86.9921,781.582 96.4409,781.582 "/>
<polyline clip-path="url(#clip610)" style="stroke:#000000; stroke-linecap:round; stroke-linejoin:round; stroke-width:4; stroke-opacity:1; fill:none" points="86.9921,715.793 96.4409,715.793 "/>
<polyline clip-path="url(#clip610)" style="stroke:#000000; stroke-linecap:round; stroke-linejoin:round; stroke-width:4; stroke-opacity:1; fill:none" points="86.9921,650.004 96.4409,650.004 "/>
<polyline clip-path="url(#clip610)" style="stroke:#000000; stroke-linecap:round; stroke-linejoin:round; stroke-width:4; stroke-opacity:1; fill:none" points="86.9921,584.215 96.4409,584.215 "/>
<polyline clip-path="url(#clip610)" style="stroke:#000000; stroke-linecap:round; stroke-linejoin:round; stroke-width:4; stroke-opacity:1; fill:none" points="86.9921,452.638 96.4409,452.638 "/>
<polyline clip-path="url(#clip610)" style="stroke:#000000; stroke-linecap:round; stroke-linejoin:round; stroke-width:4; stroke-opacity:1; fill:none" points="86.9921,386.849 96.4409,386.849 "/>
<polyline clip-path="url(#clip610)" style="stroke:#000000; stroke-linecap:round; stroke-linejoin:round; stroke-width:4; stroke-opacity:1; fill:none" points="86.9921,321.06 96.4409,321.06 "/>
<polyline clip-path="url(#clip610)" style="stroke:#000000; stroke-linecap:round; stroke-linejoin:round; stroke-width:4; stroke-opacity:1; fill:none" points="86.9921,255.271 96.4409,255.271 "/>
<polyline clip-path="url(#clip610)" style="stroke:#000000; stroke-linecap:round; stroke-linejoin:round; stroke-width:4; stroke-opacity:1; fill:none" points="86.9921,123.693 96.4409,123.693 "/>
<polyline clip-path="url(#clip610)" style="stroke:#000000; stroke-linecap:round; stroke-linejoin:round; stroke-width:4; stroke-opacity:1; fill:none" points="86.9921,57.9042 96.4409,57.9042 "/>
<path clip-path="url(#clip610)" d="M-6.18349 1491.06 Q-9.79459 1491.06 -11.6233 1494.62 Q-13.4288 1498.16 -13.4288 1505.29 Q-13.4288 1512.4 -11.6233 1515.97 Q-9.79459 1519.51 -6.18349 1519.51 Q-2.54925 1519.51 -0.743708 1515.97 Q1.08499 1512.4 1.08499 1505.29 Q1.08499 1498.16 -0.743708 1494.62 Q-2.54925 1491.06 -6.18349 1491.06 M-6.18349 1487.35 Q-0.37334 1487.35 2.6822 1491.96 Q5.76089 1496.54 5.76089 1505.29 Q5.76089 1514.02 2.6822 1518.63 Q-0.37334 1523.21 -6.18349 1523.21 Q-11.9936 1523.21 -15.0723 1518.63 Q-18.1279 1514.02 -18.1279 1505.29 Q-18.1279 1496.54 -15.0723 1491.96 Q-11.9936 1487.35 -6.18349 1487.35 Z" fill="#000000" fill-rule="nonzero" fill-opacity="1" /><path clip-path="url(#clip610)" d="M13.9784 1516.66 L18.8627 1516.66 L18.8627 1522.54 L13.9784 1522.54 L13.9784 1516.66 Z" fill="#000000" fill-rule="nonzero" fill-opacity="1" /><path clip-path="url(#clip610)" d="M39.0477 1491.06 Q35.4367 1491.06 33.608 1494.62 Q31.8024 1498.16 31.8024 1505.29 Q31.8024 1512.4 33.608 1515.97 Q35.4367 1519.51 39.0477 1519.51 Q42.682 1519.51 44.4875 1515.97 Q46.3162 1512.4 46.3162 1505.29 Q46.3162 1498.16 44.4875 1494.62 Q42.682 1491.06 39.0477 1491.06 M39.0477 1487.35 Q44.8579 1487.35 47.9134 1491.96 Q50.9921 1496.54 50.9921 1505.29 Q50.9921 1514.02 47.9134 1518.63 Q44.8579 1523.21 39.0477 1523.21 Q33.2376 1523.21 30.1589 1518.63 Q27.1034 1514.02 27.1034 1505.29 Q27.1034 1496.54 30.1589 1491.96 Q33.2376 1487.35 39.0477 1487.35 Z" fill="#000000" fill-rule="nonzero" fill-opacity="1" /><path clip-path="url(#clip610)" d="M-4.95665 1162.11 Q-8.56774 1162.11 -10.3964 1165.68 Q-12.202 1169.22 -12.202 1176.35 Q-12.202 1183.46 -10.3964 1187.02 Q-8.56774 1190.56 -4.95665 1190.56 Q-1.32241 1190.56 0.483137 1187.02 Q2.31183 1183.46 2.31183 1176.35 Q2.31183 1169.22 0.483137 1165.68 Q-1.32241 1162.11 -4.95665 1162.11 M-4.95665 1158.41 Q0.853506 1158.41 3.90904 1163.02 Q6.98773 1167.6 6.98773 1176.35 Q6.98773 1185.08 3.90904 1189.68 Q0.853506 1194.27 -4.95665 1194.27 Q-10.7668 1194.27 -13.8455 1189.68 Q-16.901 1185.08 -16.901 1176.35 Q-16.901 1167.6 -13.8455 1163.02 Q-10.7668 1158.41 -4.95665 1158.41 Z" fill="#000000" fill-rule="nonzero" fill-opacity="1" /><path clip-path="url(#clip610)" d="M15.2053 1187.72 L20.0895 1187.72 L20.0895 1193.6 L15.2053 1193.6 L15.2053 1187.72 Z" fill="#000000" fill-rule="nonzero" fill-opacity="1" /><path clip-path="url(#clip610)" d="M31.0848 1189.66 L38.7237 1189.66 L38.7237 1163.29 L30.4135 1164.96 L30.4135 1160.7 L38.6774 1159.04 L43.3533 1159.04 L43.3533 1189.66 L50.9921 1189.66 L50.9921 1193.6 L31.0848 1193.6 L31.0848 1189.66 Z" fill="#000000" fill-rule="nonzero" fill-opacity="1" /><path clip-path="url(#clip610)" d="M-4.58628 833.17 Q-8.19737 833.17 -10.0261 836.734 Q-11.8316 840.276 -11.8316 847.406 Q-11.8316 854.512 -10.0261 858.077 Q-8.19737 861.619 -4.58628 861.619 Q-0.95204 861.619 0.853506 858.077 Q2.6822 854.512 2.6822 847.406 Q2.6822 840.276 0.853506 836.734 Q-0.95204 833.17 -4.58628 833.17 M-4.58628 829.466 Q1.22387 829.466 4.27941 834.072 Q7.3581 838.656 7.3581 847.406 Q7.3581 856.132 4.27941 860.739 Q1.22387 865.322 -4.58628 865.322 Q-10.3964 865.322 -13.4751 860.739 Q-16.5307 856.132 -16.5307 847.406 Q-16.5307 838.656 -13.4751 834.072 Q-10.3964 829.466 -4.58628 829.466 Z" fill="#000000" fill-rule="nonzero" fill-opacity="1" /><path clip-path="url(#clip610)" d="M15.5756 858.771 L20.4599 858.771 L20.4599 864.651 L15.5756 864.651 L15.5756 858.771 Z" fill="#000000" fill-rule="nonzero" fill-opacity="1" /><path clip-path="url(#clip610)" d="M34.6728 860.716 L50.9921 860.716 L50.9921 864.651 L29.0478 864.651 L29.0478 860.716 Q31.7098 857.961 36.2931 853.332 Q40.8996 848.679 42.0801 847.336 Q44.3255 844.813 45.2051 843.077 Q46.1079 841.318 46.1079 839.628 Q46.1079 836.873 44.1635 835.137 Q42.2422 833.401 39.1403 833.401 Q36.9413 833.401 34.4876 834.165 Q32.057 834.929 29.2793 836.48 L29.2793 831.758 Q32.1033 830.623 34.557 830.045 Q37.0107 829.466 39.0477 829.466 Q44.4181 829.466 47.6125 832.151 Q50.8069 834.836 50.8069 839.327 Q50.8069 841.457 49.9968 843.378 Q49.2097 845.276 47.1033 847.869 Q46.5246 848.54 43.4227 851.757 Q40.3209 854.952 34.6728 860.716 Z" fill="#000000" fill-rule="nonzero" fill-opacity="1" /><path clip-path="url(#clip610)" d="M-5.53535 504.225 Q-9.14644 504.225 -10.9751 507.79 Q-12.7807 511.332 -12.7807 518.461 Q-12.7807 525.568 -10.9751 529.132 Q-9.14644 532.674 -5.53535 532.674 Q-1.90111 532.674 -0.0955632 529.132 Q1.73313 525.568 1.73313 518.461 Q1.73313 511.332 -0.0955632 507.79 Q-1.90111 504.225 -5.53535 504.225 M-5.53535 500.521 Q0.274805 500.521 3.33034 505.128 Q6.40903 509.711 6.40903 518.461 Q6.40903 527.188 3.33034 531.794 Q0.274805 536.378 -5.53535 536.378 Q-11.3455 536.378 -14.4242 531.794 Q-17.4797 527.188 -17.4797 518.461 Q-17.4797 509.711 -14.4242 505.128 Q-11.3455 500.521 -5.53535 500.521 Z" fill="#000000" fill-rule="nonzero" fill-opacity="1" /><path clip-path="url(#clip610)" d="M14.6266 529.827 L19.5108 529.827 L19.5108 535.706 L14.6266 535.706 L14.6266 529.827 Z" fill="#000000" fill-rule="nonzero" fill-opacity="1" /><path clip-path="url(#clip610)" d="M43.8625 517.072 Q47.219 517.79 49.094 520.058 Q50.9921 522.327 50.9921 525.66 Q50.9921 530.776 47.4736 533.577 Q43.9551 536.378 37.4737 536.378 Q35.2978 536.378 32.983 535.938 Q30.6913 535.521 28.2376 534.665 L28.2376 530.151 Q30.1821 531.285 32.4969 531.864 Q34.8117 532.443 37.3348 532.443 Q41.7329 532.443 44.0246 530.706 Q46.3394 528.97 46.3394 525.66 Q46.3394 522.605 44.1866 520.892 Q42.057 519.156 38.2376 519.156 L34.2098 519.156 L34.2098 515.313 L38.4227 515.313 Q41.8718 515.313 43.7005 513.947 Q45.5292 512.558 45.5292 509.966 Q45.5292 507.304 43.6311 505.892 Q41.7561 504.457 38.2376 504.457 Q36.3163 504.457 34.1172 504.873 Q31.9182 505.29 29.2793 506.17 L29.2793 502.003 Q31.9413 501.262 34.2561 500.892 Q36.5941 500.521 38.6542 500.521 Q43.9783 500.521 47.0801 502.952 Q50.1819 505.359 50.1819 509.48 Q50.1819 512.35 48.5384 514.341 Q46.8949 516.308 43.8625 517.072 Z" fill="#000000" fill-rule="nonzero" fill-opacity="1" /><path clip-path="url(#clip610)" d="M-6.6696 175.281 Q-10.2807 175.281 -12.1094 178.845 Q-13.9149 182.387 -13.9149 189.517 Q-13.9149 196.623 -12.1094 200.188 Q-10.2807 203.73 -6.6696 203.73 Q-3.03536 203.73 -1.22982 200.188 Q0.598877 196.623 0.598877 189.517 Q0.598877 182.387 -1.22982 178.845 Q-3.03536 175.281 -6.6696 175.281 M-6.6696 171.577 Q-0.859448 171.577 2.19609 176.183 Q5.27478 180.767 5.27478 189.517 Q5.27478 198.244 2.19609 202.85 Q-0.859448 207.433 -6.6696 207.433 Q-12.4798 207.433 -15.5584 202.85 Q-18.614 198.244 -18.614 189.517 Q-18.614 180.767 -15.5584 176.183 Q-12.4798 171.577 -6.6696 171.577 Z" fill="#000000" fill-rule="nonzero" fill-opacity="1" /><path clip-path="url(#clip610)" d="M13.4923 200.882 L18.3766 200.882 L18.3766 206.762 L13.4923 206.762 L13.4923 200.882 Z" fill="#000000" fill-rule="nonzero" fill-opacity="1" /><path clip-path="url(#clip610)" d="M41.4088 176.276 L29.6034 194.725 L41.4088 194.725 L41.4088 176.276 M40.182 172.202 L46.0616 172.202 L46.0616 194.725 L50.9921 194.725 L50.9921 198.614 L46.0616 198.614 L46.0616 206.762 L41.4088 206.762 L41.4088 198.614 L25.8071 198.614 L25.8071 194.1 L40.182 172.202 Z" fill="#000000" fill-rule="nonzero" fill-opacity="1" /><path clip-path="url(#clip612)" d="M86.9921 1505.26 L101.743 1505.26 L238.141 1505.25 L320.11 1505.17 L389.414 1504.84 L464.698 1503.25 L534.103 1497.96 L552.705 1495.19 L571.307 1491.51 L589.91 1486.67 L608.512 1480.38 L630.065 1470.83 L651.617 1458.25 L662.393 1450.61 L673.17 1441.94 L683.946 1432.13 L694.722 1421.1 L704.299 1410.18 L713.876 1398.12 L723.452 1384.86 L733.029 1370.31 L742.606 1354.41 L752.183 1337.09 L761.759 1318.28 L771.336 1297.92 L779.734 1278.74 L788.132 1258.3 L796.53 1236.57 L804.928 1213.52 L813.326 1189.15 L821.723 1163.44 L830.121 1136.4 L838.519 1108.04 L847.675 1075.63 L856.831 1041.71 L865.987 1006.33 L875.143 969.553 L884.299 931.471 L893.455 892.18 L902.611 851.793 L911.767 810.444 L948.609 637.535 L985.45 463.563 L995.633 417.204 L1005.82 372.206 L1016 328.903 L1026.18 287.624 L1036.37 248.694 L1046.55 212.427 L1056.73 179.12 L1066.92 149.054 L1076.61 123.69 L1086.29 101.691 L1091.14 92.0085 L1095.98 83.2311 L1100.83 75.3761 L1105.67 68.4592 L1110.52 62.4946 L1115.36 57.4942 L1120.21 53.4684 L1125.05 50.4252 L1129.9 48.371 L1134.74 47.3099 L1139.58 47.2441 L1144.43 48.1737 L1149.47 50.1939 L1154.5 53.2836 L1159.54 57.4362 L1164.58 62.6424 L1169.62 68.8908 L1174.65 76.1677 L1179.69 84.4572 L1184.73 93.7411 L1189.76 103.999 L1194.8 115.21 L1199.84 127.348 L1204.88 140.389 L1214.95 169.064 L1225.02 200.994 L1233.51 230.202 L1241.99 261.363 L1250.47 294.298 L1258.95 328.827 L1275.91 401.907 L1292.87 479.073 L1313.58 576.605 L1334.28 675.289 L1354.99 772.683 L1375.7 866.667 L1385.18 908.083 L1394.67 948.274 L1404.15 987.117 L1413.64 1024.51 L1423.12 1060.37 L1432.61 1094.64 L1442.09 1127.25 L1451.58 1158.19 L1460.34 1185.25 L1469.1 1210.86 L1477.86 1235.02 L1486.62 1257.76 L1495.38 1279.08 L1504.14 1299.03 L1512.9 1317.64 L1521.66 1334.96 L1530.53 1351.21 L1539.4 1366.24 L1548.28 1380.09 L1557.15 1392.81 L1566.02 1404.48 L1574.9 1415.14 L1583.77 1424.85 L1592.64 1433.69 L1612.53 1450.58 L1632.42 1463.96 L1652.31 1474.43 L1672.2 1482.5 L1690.22 1488.15 L1708.25 1492.51 L1726.27 1495.86 L1744.29 1498.39 L1785.56 1502.02 L1826.83 1503.81 L1865.04 1504.6 L1903.26 1504.97 L1978.6 1505.21 L2051.76 1505.25 L2126.75 1505.26 L2208.91 1505.26 L2328.27 1505.26 L2352.76 1505.26 L2352.76 1505.26 L2328.27 1505.26 L2208.91 1505.26 L2126.75 1505.26 L2051.76 1505.26 L1978.6 1505.26 L1903.26 1505.26 L1865.04 1505.26 L1826.83 1505.26 L1785.56 1505.26 L1744.29 1505.26 L1726.27 1505.26 L1708.25 1505.26 L1690.22 1505.26 L1672.2 1505.26 L1652.31 1505.26 L1632.42 1505.26 L1612.53 1505.26 L1592.64 1505.26 L1583.77 1505.26 L1574.9 1505.26 L1566.02 1505.26 L1557.15 1505.26 L1548.28 1505.26 L1539.4 1505.26 L1530.53 1505.26 L1521.66 1505.26 L1512.9 1505.26 L1504.14 1505.26 L1495.38 1505.26 L1486.62 1505.26 L1477.86 1505.26 L1469.1 1505.26 L1460.34 1505.26 L1451.58 1505.26 L1442.09 1505.26 L1432.61 1505.26 L1423.12 1505.26 L1413.64 1505.26 L1404.15 1505.26 L1394.67 1505.26 L1385.18 1505.26 L1375.7 1505.26 L1354.99 1505.26 L1334.28 1505.26 L1313.58 1505.26 L1292.87 1505.26 L1275.91 1505.26 L1258.95 1505.26 L1250.47 1505.26 L1241.99 1505.26 L1233.51 1505.26 L1225.02 1505.26 L1214.95 1505.26 L1204.88 1505.26 L1199.84 1505.26 L1194.8 1505.26 L1189.76 1505.26 L1184.73 1505.26 L1179.69 1505.26 L1174.65 1505.26 L1169.62 1505.26 L1164.58 1505.26 L1159.54 1505.26 L1154.5 1505.26 L1149.47 1505.26 L1144.43 1505.26 L1139.58 1505.26 L1134.74 1505.26 L1129.9 1505.26 L1125.05 1505.26 L1120.21 1505.26 L1115.36 1505.26 L1110.52 1505.26 L1105.67 1505.26 L1100.83 1505.26 L1095.98 1505.26 L1091.14 1505.26 L1086.29 1505.26 L1076.61 1505.26 L1066.92 1505.26 L1056.73 1505.26 L1046.55 1505.26 L1036.37 1505.26 L1026.18 1505.26 L1016 1505.26 L1005.82 1505.26 L995.633 1505.26 L985.45 1505.26 L948.609 1505.26 L911.767 1505.26 L902.611 1505.26 L893.455 1505.26 L884.299 1505.26 L875.143 1505.26 L865.987 1505.26 L856.831 1505.26 L847.675 1505.26 L838.519 1505.26 L830.121 1505.26 L821.723 1505.26 L813.326 1505.26 L804.928 1505.26 L796.53 1505.26 L788.132 1505.26 L779.734 1505.26 L771.336 1505.26 L761.759 1505.26 L752.183 1505.26 L742.606 1505.26 L733.029 1505.26 L723.452 1505.26 L713.876 1505.26 L704.299 1505.26 L694.722 1505.26 L683.946 1505.26 L673.17 1505.26 L662.393 1505.26 L651.617 1505.26 L630.065 1505.26 L608.512 1505.26 L589.91 1505.26 L571.307 1505.26 L552.705 1505.26 L534.103 1505.26 L464.698 1505.26 L389.414 1505.26 L320.11 1505.26 L238.141 1505.26 L101.743 1505.26 L86.9921 1505.26  Z" fill="#e69f00" fill-rule="evenodd" fill-opacity="0.8"/>
<polyline clip-path="url(#clip612)" style="stroke:#e69f00; stroke-linecap:round; stroke-linejoin:round; stroke-width:4; stroke-opacity:0.8; fill:none" points="86.9921,1505.26 101.743,1505.26 238.141,1505.25 320.11,1505.17 389.414,1504.84 464.698,1503.25 534.103,1497.96 552.705,1495.19 571.307,1491.51 589.91,1486.67 608.512,1480.38 630.065,1470.83 651.617,1458.25 662.393,1450.61 673.17,1441.94 683.946,1432.13 694.722,1421.1 704.299,1410.18 713.876,1398.12 723.452,1384.86 733.029,1370.31 742.606,1354.41 752.183,1337.09 761.759,1318.28 771.336,1297.92 779.734,1278.74 788.132,1258.3 796.53,1236.57 804.928,1213.52 813.326,1189.15 821.723,1163.44 830.121,1136.4 838.519,1108.04 847.675,1075.63 856.831,1041.71 865.987,1006.33 875.143,969.553 884.299,931.471 893.455,892.18 902.611,851.793 911.767,810.444 948.609,637.535 985.45,463.563 995.633,417.204 1005.82,372.206 1016,328.903 1026.18,287.624 1036.37,248.694 1046.55,212.427 1056.73,179.12 1066.92,149.054 1076.61,123.69 1086.29,101.691 1091.14,92.0085 1095.98,83.2311 1100.83,75.3761 1105.67,68.4592 1110.52,62.4946 1115.36,57.4942 1120.21,53.4684 1125.05,50.4252 1129.9,48.371 1134.74,47.3099 1139.58,47.2441 1144.43,48.1737 1149.47,50.1939 1154.5,53.2836 1159.54,57.4362 1164.58,62.6424 1169.62,68.8908 1174.65,76.1677 1179.69,84.4572 1184.73,93.7411 1189.76,103.999 1194.8,115.21 1199.84,127.348 1204.88,140.389 1214.95,169.064 1225.02,200.994 1233.51,230.202 1241.99,261.363 1250.47,294.298 1258.95,328.827 1275.91,401.907 1292.87,479.073 1313.58,576.605 1334.28,675.289 1354.99,772.683 1375.7,866.667 1385.18,908.083 1394.67,948.274 1404.15,987.117 1413.64,1024.51 1423.12,1060.37 1432.61,1094.64 1442.09,1127.25 1451.58,1158.19 1460.34,1185.25 1469.1,1210.86 1477.86,1235.02 1486.62,1257.76 1495.38,1279.08 1504.14,1299.03 1512.9,1317.64 1521.66,1334.96 1530.53,1351.21 1539.4,1366.24 1548.28,1380.09 1557.15,1392.81 1566.02,1404.48 1574.9,1415.14 1583.77,1424.85 1592.64,1433.69 1612.53,1450.58 1632.42,1463.96 1652.31,1474.43 1672.2,1482.5 1690.22,1488.15 1708.25,1492.51 1726.27,1495.86 1744.29,1498.39 1785.56,1502.02 1826.83,1503.81 1865.04,1504.6 1903.26,1504.97 1978.6,1505.21 2051.76,1505.25 2126.75,1505.26 2208.91,1505.26 2328.27,1505.26 2352.76,1505.26 "/>
</svg>
