<?xml version="1.0" encoding="utf-8"?>
<svg xmlns="http://www.w3.org/2000/svg" xmlns:xlink="http://www.w3.org/1999/xlink" width="600" height="400" viewBox="0 0 2400 1600">
<defs>
  <clipPath id="clip630">
    <rect x="0" y="0" width="2400" height="1600"/>
  </clipPath>
</defs>
<path clip-path="url(#clip630)" d="M0 1600 L2400 1600 L2400 0 L0 0  Z" fill="#ffffff" fill-rule="evenodd" fill-opacity="1"/>
<defs>
  <clipPath id="clip631">
    <rect x="480" y="0" width="1681" height="1600"/>
  </clipPath>
</defs>
<path clip-path="url(#clip630)" d="M156.598 1423.18 L2352.76 1423.18 L2352.76 47.2441 L156.598 47.2441  Z" fill="#ffffff" fill-rule="evenodd" fill-opacity="1"/>
<defs>
  <clipPath id="clip632">
    <rect x="156" y="47" width="2197" height="1377"/>
  </clipPath>
</defs>
<polyline clip-path="url(#clip630)" style="stroke:#000000; stroke-linecap:round; stroke-linejoin:round; stroke-width:4; stroke-opacity:1; fill:none" points="156.598,1423.18 2352.76,1423.18 "/>
<polyline clip-path="url(#clip630)" style="stroke:#000000; stroke-linecap:round; stroke-linejoin:round; stroke-width:4; stroke-opacity:1; fill:none" points="156.598,47.2441 2352.76,47.2441 "/>
<polyline clip-path="url(#clip630)" style="stroke:#000000; stroke-linecap:round; stroke-linejoin:round; stroke-width:4; stroke-opacity:1; fill:none" points="456.074,1423.18 456.074,1404.28 "/>
<polyline clip-path="url(#clip630)" style="stroke:#000000; stroke-linecap:round; stroke-linejoin:round; stroke-width:4; stroke-opacity:1; fill:none" points="955.201,1423.18 955.201,1404.28 "/>
<polyline clip-path="url(#clip630)" style="stroke:#000000; stroke-linecap:round; stroke-linejoin:round; stroke-width:4; stroke-opacity:1; fill:none" points="1454.33,1423.18 1454.33,1404.28 "/>
<polyline clip-path="url(#clip630)" style="stroke:#000000; stroke-linecap:round; stroke-linejoin:round; stroke-width:4; stroke-opacity:1; fill:none" points="1953.45,1423.18 1953.45,1404.28 "/>
<polyline clip-path="url(#clip630)" style="stroke:#000000; stroke-linecap:round; stroke-linejoin:round; stroke-width:4; stroke-opacity:1; fill:none" points="156.598,1423.18 156.598,1413.73 "/>
<polyline clip-path="url(#clip630)" style="stroke:#000000; stroke-linecap:round; stroke-linejoin:round; stroke-width:4; stroke-opacity:1; fill:none" points="256.424,1423.18 256.424,1413.73 "/>
<polyline clip-path="url(#clip630)" style="stroke:#000000; stroke-linecap:round; stroke-linejoin:round; stroke-width:4; stroke-opacity:1; fill:none" points="356.249,1423.18 356.249,1413.73 "/>
<polyline clip-path="url(#clip630)" style="stroke:#000000; stroke-linecap:round; stroke-linejoin:round; stroke-width:4; stroke-opacity:1; fill:none" points="555.9,1423.18 555.9,1413.73 "/>
<polyline clip-path="url(#clip630)" style="stroke:#000000; stroke-linecap:round; stroke-linejoin:round; stroke-width:4; stroke-opacity:1; fill:none" points="655.725,1423.18 655.725,1413.73 "/>
<polyline clip-path="url(#clip630)" style="stroke:#000000; stroke-linecap:round; stroke-linejoin:round; stroke-width:4; stroke-opacity:1; fill:none" points="755.55,1423.18 755.55,1413.73 "/>
<polyline clip-path="url(#clip630)" style="stroke:#000000; stroke-linecap:round; stroke-linejoin:round; stroke-width:4; stroke-opacity:1; fill:none" points="855.376,1423.18 855.376,1413.73 "/>
<polyline clip-path="url(#clip630)" style="stroke:#000000; stroke-linecap:round; stroke-linejoin:round; stroke-width:4; stroke-opacity:1; fill:none" points="1055.03,1423.18 1055.03,1413.73 "/>
<polyline clip-path="url(#clip630)" style="stroke:#000000; stroke-linecap:round; stroke-linejoin:round; stroke-width:4; stroke-opacity:1; fill:none" points="1154.85,1423.18 1154.85,1413.73 "/>
<polyline clip-path="url(#clip630)" style="stroke:#000000; stroke-linecap:round; stroke-linejoin:round; stroke-width:4; stroke-opacity:1; fill:none" points="1254.68,1423.18 1254.68,1413.73 "/>
<polyline clip-path="url(#clip630)" style="stroke:#000000; stroke-linecap:round; stroke-linejoin:round; stroke-width:4; stroke-opacity:1; fill:none" points="1354.5,1423.18 1354.5,1413.73 "/>
<polyline clip-path="url(#clip630)" style="stroke:#000000; stroke-linecap:round; stroke-linejoin:round; stroke-width:4; stroke-opacity:1; fill:none" points="1554.15,1423.18 1554.15,1413.73 "/>
<polyline clip-path="url(#clip630)" style="stroke:#000000; stroke-linecap:round; stroke-linejoin:round; stroke-width:4; stroke-opacity:1; fill:none" points="1653.98,1423.18 1653.98,1413.73 "/>
<polyline clip-path="url(#clip630)" style="stroke:#000000; stroke-linecap:round; stroke-linejoin:round; stroke-width:4; stroke-opacity:1; fill:none" points="1753.8,1423.18 1753.8,1413.73 "/>
<polyline clip-path="url(#clip630)" style="stroke:#000000; stroke-linecap:round; stroke-linejoin:round; stroke-width:4; stroke-opacity:1; fill:none" points="1853.63,1423.18 1853.63,1413.73 "/>
<polyline clip-path="url(#clip630)" style="stroke:#000000; stroke-linecap:round; stroke-linejoin:round; stroke-width:4; stroke-opacity:1; fill:none" points="2053.28,1423.18 2053.28,1413.73 "/>
<polyline clip-path="url(#clip630)" style="stroke:#000000; stroke-linecap:round; stroke-linejoin:round; stroke-width:4; stroke-opacity:1; fill:none" points="2153.11,1423.18 2153.11,1413.73 "/>
<polyline clip-path="url(#clip630)" style="stroke:#000000; stroke-linecap:round; stroke-linejoin:round; stroke-width:4; stroke-opacity:1; fill:none" points="2252.93,1423.18 2252.93,1413.73 "/>
<polyline clip-path="url(#clip630)" style="stroke:#000000; stroke-linecap:round; stroke-linejoin:round; stroke-width:4; stroke-opacity:1; fill:none" points="2352.76,1423.18 2352.76,1413.73 "/>
<path clip-path="url(#clip630)" d="M403.1 1468.75 L432.776 1468.75 L432.776 1472.69 L403.1 1472.69 L403.1 1468.75 Z" fill="#000000" fill-rule="nonzero" fill-opacity="1" /><path clip-path="url(#clip630)" d="M446.896 1481.64 L463.215 1481.64 L463.215 1485.58 L441.271 1485.58 L441.271 1481.64 Q443.933 1478.89 448.516 1474.26 Q453.123 1469.61 454.303 1468.27 Q456.549 1465.74 457.428 1464.01 Q458.331 1462.25 458.331 1460.56 Q458.331 1457.8 456.387 1456.07 Q454.465 1454.33 451.364 1454.33 Q449.165 1454.33 446.711 1455.09 Q444.28 1455.86 441.503 1457.41 L441.503 1452.69 Q444.327 1451.55 446.78 1450.97 Q449.234 1450.39 451.271 1450.39 Q456.641 1450.39 459.836 1453.08 Q463.03 1455.77 463.03 1460.26 Q463.03 1462.39 462.22 1464.31 Q461.433 1466.2 459.327 1468.8 Q458.748 1469.47 455.646 1472.69 Q452.544 1475.88 446.896 1481.64 Z" fill="#000000" fill-rule="nonzero" fill-opacity="1" /><path clip-path="url(#clip630)" d="M473.03 1479.7 L477.914 1479.7 L477.914 1485.58 L473.03 1485.58 L473.03 1479.7 Z" fill="#000000" fill-rule="nonzero" fill-opacity="1" /><path clip-path="url(#clip630)" d="M488.146 1451.02 L506.502 1451.02 L506.502 1454.96 L492.428 1454.96 L492.428 1463.43 Q493.447 1463.08 494.465 1462.92 Q495.484 1462.73 496.502 1462.73 Q502.289 1462.73 505.669 1465.9 Q509.049 1469.08 509.049 1474.49 Q509.049 1480.07 505.576 1483.17 Q502.104 1486.25 495.785 1486.25 Q493.609 1486.25 491.34 1485.88 Q489.095 1485.51 486.688 1484.77 L486.688 1480.07 Q488.771 1481.2 490.993 1481.76 Q493.215 1482.32 495.692 1482.32 Q499.697 1482.32 502.035 1480.21 Q504.373 1478.1 504.373 1474.49 Q504.373 1470.88 502.035 1468.77 Q499.697 1466.67 495.692 1466.67 Q493.817 1466.67 491.942 1467.08 Q490.09 1467.5 488.146 1468.38 L488.146 1451.02 Z" fill="#000000" fill-rule="nonzero" fill-opacity="1" /><path clip-path="url(#clip630)" d="M932.585 1454.1 Q928.974 1454.1 927.146 1457.66 Q925.34 1461.2 925.34 1468.33 Q925.34 1475.44 927.146 1479.01 Q928.974 1482.55 932.585 1482.55 Q936.22 1482.55 938.025 1479.01 Q939.854 1475.44 939.854 1468.33 Q939.854 1461.2 938.025 1457.66 Q936.22 1454.1 932.585 1454.1 M932.585 1450.39 Q938.396 1450.39 941.451 1455 Q944.53 1459.58 944.53 1468.33 Q944.53 1477.06 941.451 1481.67 Q938.396 1486.25 932.585 1486.25 Q926.775 1486.25 923.697 1481.67 Q920.641 1477.06 920.641 1468.33 Q920.641 1459.58 923.697 1455 Q926.775 1450.39 932.585 1450.39 Z" fill="#000000" fill-rule="nonzero" fill-opacity="1" /><path clip-path="url(#clip630)" d="M952.747 1479.7 L957.632 1479.7 L957.632 1485.58 L952.747 1485.58 L952.747 1479.7 Z" fill="#000000" fill-rule="nonzero" fill-opacity="1" /><path clip-path="url(#clip630)" d="M977.817 1454.1 Q974.206 1454.1 972.377 1457.66 Q970.571 1461.2 970.571 1468.33 Q970.571 1475.44 972.377 1479.01 Q974.206 1482.55 977.817 1482.55 Q981.451 1482.55 983.256 1479.01 Q985.085 1475.44 985.085 1468.33 Q985.085 1461.2 983.256 1457.66 Q981.451 1454.1 977.817 1454.1 M977.817 1450.39 Q983.627 1450.39 986.682 1455 Q989.761 1459.58 989.761 1468.33 Q989.761 1477.06 986.682 1481.67 Q983.627 1486.25 977.817 1486.25 Q972.006 1486.25 968.928 1481.67 Q965.872 1477.06 965.872 1468.33 Q965.872 1459.58 968.928 1455 Q972.006 1450.39 977.817 1450.39 Z" fill="#000000" fill-rule="nonzero" fill-opacity="1" /><path clip-path="url(#clip630)" d="M1426.06 1481.64 L1442.38 1481.64 L1442.38 1485.58 L1420.44 1485.58 L1420.44 1481.64 Q1423.1 1478.89 1427.68 1474.26 Q1432.29 1469.61 1433.47 1468.27 Q1435.72 1465.74 1436.6 1464.01 Q1437.5 1462.25 1437.5 1460.56 Q1437.5 1457.8 1435.55 1456.07 Q1433.63 1454.33 1430.53 1454.33 Q1428.33 1454.33 1425.88 1455.09 Q1423.45 1455.86 1420.67 1457.41 L1420.67 1452.69 Q1423.49 1451.55 1425.95 1450.97 Q1428.4 1450.39 1430.44 1450.39 Q1435.81 1450.39 1439 1453.08 Q1442.2 1455.77 1442.2 1460.26 Q1442.2 1462.39 1441.39 1464.31 Q1440.6 1466.2 1438.49 1468.8 Q1437.92 1469.47 1434.81 1472.69 Q1431.71 1475.88 1426.06 1481.64 Z" fill="#000000" fill-rule="nonzero" fill-opacity="1" /><path clip-path="url(#clip630)" d="M1452.2 1479.7 L1457.08 1479.7 L1457.08 1485.58 L1452.2 1485.58 L1452.2 1479.7 Z" fill="#000000" fill-rule="nonzero" fill-opacity="1" /><path clip-path="url(#clip630)" d="M1467.31 1451.02 L1485.67 1451.02 L1485.67 1454.96 L1471.6 1454.96 L1471.6 1463.43 Q1472.61 1463.08 1473.63 1462.92 Q1474.65 1462.73 1475.67 1462.73 Q1481.46 1462.73 1484.84 1465.9 Q1488.22 1469.08 1488.22 1474.49 Q1488.22 1480.07 1484.74 1483.17 Q1481.27 1486.25 1474.95 1486.25 Q1472.78 1486.25 1470.51 1485.88 Q1468.26 1485.51 1465.86 1484.77 L1465.86 1480.07 Q1467.94 1481.2 1470.16 1481.76 Q1472.38 1482.32 1474.86 1482.32 Q1478.86 1482.32 1481.2 1480.21 Q1483.54 1478.1 1483.54 1474.49 Q1483.54 1470.88 1481.2 1468.77 Q1478.86 1466.67 1474.86 1466.67 Q1472.99 1466.67 1471.11 1467.08 Q1469.26 1467.5 1467.31 1468.38 L1467.31 1451.02 Z" fill="#000000" fill-rule="nonzero" fill-opacity="1" /><path clip-path="url(#clip630)" d="M1920.62 1451.02 L1938.98 1451.02 L1938.98 1454.96 L1924.9 1454.96 L1924.9 1463.43 Q1925.92 1463.08 1926.94 1462.92 Q1927.96 1462.73 1928.98 1462.73 Q1934.76 1462.73 1938.14 1465.9 Q1941.52 1469.08 1941.52 1474.49 Q1941.52 1480.07 1938.05 1483.17 Q1934.58 1486.25 1928.26 1486.25 Q1926.08 1486.25 1923.81 1485.88 Q1921.57 1485.51 1919.16 1484.77 L1919.16 1480.07 Q1921.24 1481.2 1923.47 1481.76 Q1925.69 1482.32 1928.17 1482.32 Q1932.17 1482.32 1934.51 1480.21 Q1936.85 1478.1 1936.85 1474.49 Q1936.85 1470.88 1934.51 1468.77 Q1932.17 1466.67 1928.17 1466.67 Q1926.29 1466.67 1924.42 1467.08 Q1922.56 1467.5 1920.62 1468.38 L1920.62 1451.02 Z" fill="#000000" fill-rule="nonzero" fill-opacity="1" /><path clip-path="url(#clip630)" d="M1950.73 1479.7 L1955.62 1479.7 L1955.62 1485.58 L1950.73 1485.58 L1950.73 1479.7 Z" fill="#000000" fill-rule="nonzero" fill-opacity="1" /><path clip-path="url(#clip630)" d="M1975.8 1454.1 Q1972.19 1454.1 1970.36 1457.66 Q1968.56 1461.2 1968.56 1468.33 Q1968.56 1475.44 1970.36 1479.01 Q1972.19 1482.55 1975.8 1482.55 Q1979.44 1482.55 1981.24 1479.01 Q1983.07 1475.44 1983.07 1468.33 Q1983.07 1461.2 1981.24 1457.66 Q1979.44 1454.1 1975.8 1454.1 M1975.8 1450.39 Q1981.61 1450.39 1984.67 1455 Q1987.75 1459.58 1987.75 1468.33 Q1987.75 1477.06 1984.67 1481.67 Q1981.61 1486.25 1975.8 1486.25 Q1969.99 1486.25 1966.92 1481.67 Q1963.86 1477.06 1963.86 1468.33 Q1963.86 1459.58 1966.92 1455 Q1969.99 1450.39 1975.8 1450.39 Z" fill="#000000" fill-rule="nonzero" fill-opacity="1" /><path clip-path="url(#clip630)" d="M2242.28 1532.4 L2229.39 1549.74 L2242.95 1568.04 L2236.04 1568.04 L2225.67 1554.04 L2215.29 1568.04 L2208.38 1568.04 L2222.23 1549.39 L2209.56 1532.4 L2216.47 1532.4 L2225.92 1545.1 L2235.37 1532.4 L2242.28 1532.4 Z" fill="#000000" fill-rule="nonzero" fill-opacity="1" /><polyline clip-path="url(#clip630)" style="stroke:#000000; stroke-linecap:round; stroke-linejoin:round; stroke-width:4; stroke-opacity:1; fill:none" points="156.598,1423.18 156.598,47.2441 "/>
<polyline clip-path="url(#clip630)" style="stroke:#000000; stroke-linecap:round; stroke-linejoin:round; stroke-width:4; stroke-opacity:1; fill:none" points="2352.76,1423.18 2352.76,47.2441 "/>
<polyline clip-path="url(#clip630)" style="stroke:#000000; stroke-linecap:round; stroke-linejoin:round; stroke-width:4; stroke-opacity:1; fill:none" points="156.598,1423.18 175.496,1423.18 "/>
<polyline clip-path="url(#clip630)" style="stroke:#000000; stroke-linecap:round; stroke-linejoin:round; stroke-width:4; stroke-opacity:1; fill:none" points="156.598,1112.75 175.496,1112.75 "/>
<polyline clip-path="url(#clip630)" style="stroke:#000000; stroke-linecap:round; stroke-linejoin:round; stroke-width:4; stroke-opacity:1; fill:none" points="156.598,802.327 175.496,802.327 "/>
<polyline clip-path="url(#clip630)" style="stroke:#000000; stroke-linecap:round; stroke-linejoin:round; stroke-width:4; stroke-opacity:1; fill:none" points="156.598,491.901 175.496,491.901 "/>
<polyline clip-path="url(#clip630)" style="stroke:#000000; stroke-linecap:round; stroke-linejoin:round; stroke-width:4; stroke-opacity:1; fill:none" points="156.598,181.475 175.496,181.475 "/>
<polyline clip-path="url(#clip630)" style="stroke:#000000; stroke-linecap:round; stroke-linejoin:round; stroke-width:4; stroke-opacity:1; fill:none" points="156.598,1361.09 166.047,1361.09 "/>
<polyline clip-path="url(#clip630)" style="stroke:#000000; stroke-linecap:round; stroke-linejoin:round; stroke-width:4; stroke-opacity:1; fill:none" points="156.598,1299.01 166.047,1299.01 "/>
<polyline clip-path="url(#clip630)" style="stroke:#000000; stroke-linecap:round; stroke-linejoin:round; stroke-width:4; stroke-opacity:1; fill:none" points="156.598,1236.92 166.047,1236.92 "/>
<polyline clip-path="url(#clip630)" style="stroke:#000000; stroke-linecap:round; stroke-linejoin:round; stroke-width:4; stroke-opacity:1; fill:none" points="156.598,1174.84 166.047,1174.84 "/>
<polyline clip-path="url(#clip630)" style="stroke:#000000; stroke-linecap:round; stroke-linejoin:round; stroke-width:4; stroke-opacity:1; fill:none" points="156.598,1050.67 166.047,1050.67 "/>
<polyline clip-path="url(#clip630)" style="stroke:#000000; stroke-linecap:round; stroke-linejoin:round; stroke-width:4; stroke-opacity:1; fill:none" points="156.598,988.583 166.047,988.583 "/>
<polyline clip-path="url(#clip630)" style="stroke:#000000; stroke-linecap:round; stroke-linejoin:round; stroke-width:4; stroke-opacity:1; fill:none" points="156.598,926.498 166.047,926.498 "/>
<polyline clip-path="url(#clip630)" style="stroke:#000000; stroke-linecap:round; stroke-linejoin:round; stroke-width:4; stroke-opacity:1; fill:none" points="156.598,864.412 166.047,864.412 "/>
<polyline clip-path="url(#clip630)" style="stroke:#000000; stroke-linecap:round; stroke-linejoin:round; stroke-width:4; stroke-opacity:1; fill:none" points="156.598,740.242 166.047,740.242 "/>
<polyline clip-path="url(#clip630)" style="stroke:#000000; stroke-linecap:round; stroke-linejoin:round; stroke-width:4; stroke-opacity:1; fill:none" points="156.598,678.157 166.047,678.157 "/>
<polyline clip-path="url(#clip630)" style="stroke:#000000; stroke-linecap:round; stroke-linejoin:round; stroke-width:4; stroke-opacity:1; fill:none" points="156.598,616.071 166.047,616.071 "/>
<polyline clip-path="url(#clip630)" style="stroke:#000000; stroke-linecap:round; stroke-linejoin:round; stroke-width:4; stroke-opacity:1; fill:none" points="156.598,553.986 166.047,553.986 "/>
<polyline clip-path="url(#clip630)" style="stroke:#000000; stroke-linecap:round; stroke-linejoin:round; stroke-width:4; stroke-opacity:1; fill:none" points="156.598,429.816 166.047,429.816 "/>
<polyline clip-path="url(#clip630)" style="stroke:#000000; stroke-linecap:round; stroke-linejoin:round; stroke-width:4; stroke-opacity:1; fill:none" points="156.598,367.73 166.047,367.73 "/>
<polyline clip-path="url(#clip630)" style="stroke:#000000; stroke-linecap:round; stroke-linejoin:round; stroke-width:4; stroke-opacity:1; fill:none" points="156.598,305.645 166.047,305.645 "/>
<polyline clip-path="url(#clip630)" style="stroke:#000000; stroke-linecap:round; stroke-linejoin:round; stroke-width:4; stroke-opacity:1; fill:none" points="156.598,243.56 166.047,243.56 "/>
<polyline clip-path="url(#clip630)" style="stroke:#000000; stroke-linecap:round; stroke-linejoin:round; stroke-width:4; stroke-opacity:1; fill:none" points="156.598,119.389 166.047,119.389 "/>
<polyline clip-path="url(#clip630)" style="stroke:#000000; stroke-linecap:round; stroke-linejoin:round; stroke-width:4; stroke-opacity:1; fill:none" points="156.598,57.3041 166.047,57.3041 "/>
<path clip-path="url(#clip630)" d="M63.4226 1408.98 Q59.8115 1408.98 57.9828 1412.54 Q56.1773 1416.08 56.1773 1423.21 Q56.1773 1430.32 57.9828 1433.89 Q59.8115 1437.43 63.4226 1437.43 Q67.0569 1437.43 68.8624 1433.89 Q70.6911 1430.32 70.6911 1423.21 Q70.6911 1416.08 68.8624 1412.54 Q67.0569 1408.98 63.4226 1408.98 M63.4226 1405.27 Q69.2328 1405.27 72.2883 1409.88 Q75.367 1414.46 75.367 1423.21 Q75.367 1431.94 72.2883 1436.55 Q69.2328 1441.13 63.4226 1441.13 Q57.6125 1441.13 54.5338 1436.55 Q51.4782 1431.94 51.4782 1423.21 Q51.4782 1414.46 54.5338 1409.88 Q57.6125 1405.27 63.4226 1405.27 Z" fill="#000000" fill-rule="nonzero" fill-opacity="1" /><path clip-path="url(#clip630)" d="M83.5845 1434.58 L88.4688 1434.58 L88.4688 1440.46 L83.5845 1440.46 L83.5845 1434.58 Z" fill="#000000" fill-rule="nonzero" fill-opacity="1" /><path clip-path="url(#clip630)" d="M108.654 1408.98 Q105.043 1408.98 103.214 1412.54 Q101.409 1416.08 101.409 1423.21 Q101.409 1430.32 103.214 1433.89 Q105.043 1437.43 108.654 1437.43 Q112.288 1437.43 114.094 1433.89 Q115.922 1430.32 115.922 1423.21 Q115.922 1416.08 114.094 1412.54 Q112.288 1408.98 108.654 1408.98 M108.654 1405.27 Q114.464 1405.27 117.52 1409.88 Q120.598 1414.46 120.598 1423.21 Q120.598 1431.94 117.52 1436.55 Q114.464 1441.13 108.654 1441.13 Q102.844 1441.13 99.765 1436.55 Q96.7095 1431.94 96.7095 1423.21 Q96.7095 1414.46 99.765 1409.88 Q102.844 1405.27 108.654 1405.27 Z" fill="#000000" fill-rule="nonzero" fill-opacity="1" /><path clip-path="url(#clip630)" d="M64.6495 1098.55 Q61.0384 1098.55 59.2097 1102.12 Q57.4041 1105.66 57.4041 1112.79 Q57.4041 1119.89 59.2097 1123.46 Q61.0384 1127 64.6495 1127 Q68.2837 1127 70.0892 1123.46 Q71.9179 1119.89 71.9179 1112.79 Q71.9179 1105.66 70.0892 1102.12 Q68.2837 1098.55 64.6495 1098.55 M64.6495 1094.85 Q70.4596 1094.85 73.5152 1099.45 Q76.5938 1104.04 76.5938 1112.79 Q76.5938 1121.52 73.5152 1126.12 Q70.4596 1130.7 64.6495 1130.7 Q58.8393 1130.7 55.7606 1126.12 Q52.7051 1121.52 52.7051 1112.79 Q52.7051 1104.04 55.7606 1099.45 Q58.8393 1094.85 64.6495 1094.85 Z" fill="#000000" fill-rule="nonzero" fill-opacity="1" /><path clip-path="url(#clip630)" d="M84.8114 1124.15 L89.6956 1124.15 L89.6956 1130.03 L84.8114 1130.03 L84.8114 1124.15 Z" fill="#000000" fill-rule="nonzero" fill-opacity="1" /><path clip-path="url(#clip630)" d="M100.691 1126.1 L108.33 1126.1 L108.33 1099.73 L100.02 1101.4 L100.02 1097.14 L108.283 1095.47 L112.959 1095.47 L112.959 1126.1 L120.598 1126.1 L120.598 1130.03 L100.691 1130.03 L100.691 1126.1 Z" fill="#000000" fill-rule="nonzero" fill-opacity="1" /><path clip-path="url(#clip630)" d="M65.0198 788.126 Q61.4087 788.126 59.58 791.691 Q57.7745 795.232 57.7745 802.362 Q57.7745 809.468 59.58 813.033 Q61.4087 816.575 65.0198 816.575 Q68.6541 816.575 70.4596 813.033 Q72.2883 809.468 72.2883 802.362 Q72.2883 795.232 70.4596 791.691 Q68.6541 788.126 65.0198 788.126 M65.0198 784.422 Q70.83 784.422 73.8855 789.029 Q76.9642 793.612 76.9642 802.362 Q76.9642 811.089 73.8855 815.695 Q70.83 820.279 65.0198 820.279 Q59.2097 820.279 56.131 815.695 Q53.0754 811.089 53.0754 802.362 Q53.0754 793.612 56.131 789.029 Q59.2097 784.422 65.0198 784.422 Z" fill="#000000" fill-rule="nonzero" fill-opacity="1" /><path clip-path="url(#clip630)" d="M85.1818 813.728 L90.066 813.728 L90.066 819.607 L85.1818 819.607 L85.1818 813.728 Z" fill="#000000" fill-rule="nonzero" fill-opacity="1" /><path clip-path="url(#clip630)" d="M104.279 815.672 L120.598 815.672 L120.598 819.607 L98.6539 819.607 L98.6539 815.672 Q101.316 812.917 105.899 808.288 Q110.506 803.635 111.686 802.293 Q113.932 799.769 114.811 798.033 Q115.714 796.274 115.714 794.584 Q115.714 791.83 113.77 790.093 Q111.848 788.357 108.746 788.357 Q106.547 788.357 104.094 789.121 Q101.663 789.885 98.8854 791.436 L98.8854 786.714 Q101.709 785.58 104.163 785.001 Q106.617 784.422 108.654 784.422 Q114.024 784.422 117.219 787.107 Q120.413 789.793 120.413 794.283 Q120.413 796.413 119.603 798.334 Q118.816 800.232 116.709 802.825 Q116.131 803.496 113.029 806.714 Q109.927 809.908 104.279 815.672 Z" fill="#000000" fill-rule="nonzero" fill-opacity="1" /><path clip-path="url(#clip630)" d="M64.0708 477.7 Q60.4597 477.7 58.631 481.264 Q56.8254 484.806 56.8254 491.936 Q56.8254 499.042 58.631 502.607 Q60.4597 506.149 64.0708 506.149 Q67.705 506.149 69.5105 502.607 Q71.3392 499.042 71.3392 491.936 Q71.3392 484.806 69.5105 481.264 Q67.705 477.7 64.0708 477.7 M64.0708 473.996 Q69.8809 473.996 72.9365 478.602 Q76.0151 483.186 76.0151 491.936 Q76.0151 500.662 72.9365 505.269 Q69.8809 509.852 64.0708 509.852 Q58.2606 509.852 55.1819 505.269 Q52.1264 500.662 52.1264 491.936 Q52.1264 483.186 55.1819 478.602 Q58.2606 473.996 64.0708 473.996 Z" fill="#000000" fill-rule="nonzero" fill-opacity="1" /><path clip-path="url(#clip630)" d="M84.2327 503.301 L89.1169 503.301 L89.1169 509.181 L84.2327 509.181 L84.2327 503.301 Z" fill="#000000" fill-rule="nonzero" fill-opacity="1" /><path clip-path="url(#clip630)" d="M113.469 490.547 Q116.825 491.264 118.7 493.533 Q120.598 495.801 120.598 499.135 Q120.598 504.25 117.08 507.051 Q113.561 509.852 107.08 509.852 Q104.904 509.852 102.589 509.412 Q100.297 508.996 97.8437 508.139 L97.8437 503.625 Q99.7882 504.76 102.103 505.338 Q104.418 505.917 106.941 505.917 Q111.339 505.917 113.631 504.181 Q115.945 502.445 115.945 499.135 Q115.945 496.079 113.793 494.366 Q111.663 492.63 107.844 492.63 L103.816 492.63 L103.816 488.788 L108.029 488.788 Q111.478 488.788 113.307 487.422 Q115.135 486.033 115.135 483.44 Q115.135 480.778 113.237 479.366 Q111.362 477.931 107.844 477.931 Q105.922 477.931 103.723 478.348 Q101.524 478.764 98.8854 479.644 L98.8854 475.477 Q101.547 474.737 103.862 474.366 Q106.2 473.996 108.26 473.996 Q113.584 473.996 116.686 476.426 Q119.788 478.834 119.788 482.954 Q119.788 485.825 118.145 487.815 Q116.501 489.783 113.469 490.547 Z" fill="#000000" fill-rule="nonzero" fill-opacity="1" /><path clip-path="url(#clip630)" d="M62.9365 167.273 Q59.3254 167.273 57.4967 170.838 Q55.6912 174.38 55.6912 181.509 Q55.6912 188.616 57.4967 192.181 Q59.3254 195.722 62.9365 195.722 Q66.5707 195.722 68.3763 192.181 Q70.205 188.616 70.205 181.509 Q70.205 174.38 68.3763 170.838 Q66.5707 167.273 62.9365 167.273 M62.9365 163.57 Q68.7467 163.57 71.8022 168.176 Q74.8809 172.759 74.8809 181.509 Q74.8809 190.236 71.8022 194.843 Q68.7467 199.426 62.9365 199.426 Q57.1264 199.426 54.0477 194.843 Q50.9921 190.236 50.9921 181.509 Q50.9921 172.759 54.0477 168.176 Q57.1264 163.57 62.9365 163.57 Z" fill="#000000" fill-rule="nonzero" fill-opacity="1" /><path clip-path="url(#clip630)" d="M83.0984 192.875 L87.9827 192.875 L87.9827 198.755 L83.0984 198.755 L83.0984 192.875 Z" fill="#000000" fill-rule="nonzero" fill-opacity="1" /><path clip-path="url(#clip630)" d="M111.015 168.269 L99.2095 186.718 L111.015 186.718 L111.015 168.269 M109.788 164.195 L115.668 164.195 L115.668 186.718 L120.598 186.718 L120.598 190.607 L115.668 190.607 L115.668 198.755 L111.015 198.755 L111.015 190.607 L95.4132 190.607 L95.4132 186.093 L109.788 164.195 Z" fill="#000000" fill-rule="nonzero" fill-opacity="1" /><path clip-path="url(#clip632)" d="M156.598 1423.18 L170.896 1423.18 L303.104 1423.17 L382.555 1423.1 L449.73 1422.78 L522.701 1421.28 L589.973 1416.29 L608.004 1413.68 L626.035 1410.2 L644.066 1405.64 L662.097 1399.71 L682.987 1390.69 L703.878 1378.82 L714.323 1371.6 L724.768 1363.42 L735.213 1354.17 L745.659 1343.76 L754.941 1333.45 L764.224 1322.07 L773.506 1309.55 L782.789 1295.83 L792.071 1280.83 L801.354 1264.48 L810.636 1246.73 L819.919 1227.51 L828.058 1209.41 L836.198 1190.12 L844.338 1169.62 L852.478 1147.87 L860.618 1124.87 L868.758 1100.6 L876.898 1075.09 L885.038 1048.32 L893.913 1017.73 L902.787 985.723 L911.662 952.334 L920.537 917.631 L929.411 881.693 L938.286 844.613 L947.161 806.501 L956.035 767.479 L991.745 604.304 L1027.45 440.126 L1037.33 396.377 L1047.2 353.912 L1057.07 313.047 L1066.94 274.092 L1076.81 237.353 L1086.68 203.128 L1096.55 171.696 L1106.42 143.322 L1115.81 119.386 L1125.2 98.6254 L1129.9 89.4884 L1134.59 81.2052 L1139.29 73.7924 L1143.98 67.2649 L1148.68 61.636 L1153.38 56.9172 L1158.07 53.118 L1162.77 50.2461 L1167.46 48.3076 L1172.16 47.3062 L1176.85 47.2441 L1181.55 48.1214 L1186.43 50.0278 L1191.31 52.9436 L1196.2 56.8624 L1201.08 61.7756 L1205.96 67.6722 L1210.84 74.5395 L1215.73 82.3622 L1220.61 91.1235 L1225.49 100.804 L1230.37 111.384 L1235.26 122.839 L1240.14 135.145 L1249.9 162.206 L1259.67 192.338 L1267.89 219.903 L1276.11 249.309 L1284.33 280.39 L1292.55 312.975 L1308.99 381.941 L1325.43 454.763 L1345.5 546.805 L1365.57 639.932 L1385.64 731.844 L1405.72 820.537 L1414.91 859.622 L1424.1 897.549 L1433.3 934.206 L1442.49 969.496 L1451.68 1003.34 L1460.88 1035.67 L1470.07 1066.45 L1479.26 1095.65 L1487.75 1121.18 L1496.24 1145.35 L1504.73 1168.16 L1513.22 1189.61 L1521.72 1209.74 L1530.21 1228.56 L1538.7 1246.13 L1547.19 1262.46 L1555.79 1277.81 L1564.39 1291.99 L1572.99 1305.05 L1581.59 1317.06 L1590.19 1328.07 L1598.79 1338.13 L1607.39 1347.3 L1615.99 1355.64 L1635.27 1371.58 L1654.55 1384.21 L1673.83 1394.08 L1693.11 1401.7 L1710.58 1407.03 L1728.05 1411.15 L1745.52 1414.31 L1762.98 1416.69 L1802.99 1420.13 L1842.99 1421.81 L1880.03 1422.56 L1917.07 1422.91 L1990.1 1423.13 L2061 1423.17 L2133.69 1423.18 L2213.33 1423.18 L2329.02 1423.18 L2352.76 1423.18 L2352.76 1423.18 L2329.02 1423.18 L2213.33 1423.18 L2133.69 1423.18 L2061 1423.18 L1990.1 1423.18 L1917.07 1423.18 L1880.03 1423.18 L1842.99 1423.18 L1802.99 1423.18 L1762.98 1423.18 L1745.52 1423.18 L1728.05 1423.18 L1710.58 1423.18 L1693.11 1423.18 L1673.83 1423.18 L1654.55 1423.18 L1635.27 1423.18 L1615.99 1423.18 L1607.39 1423.18 L1598.79 1423.18 L1590.19 1423.18 L1581.59 1423.18 L1572.99 1423.18 L1564.39 1423.18 L1555.79 1423.18 L1547.19 1423.18 L1538.7 1423.18 L1530.21 1423.18 L1521.72 1423.18 L1513.22 1423.18 L1504.73 1423.18 L1496.24 1423.18 L1487.75 1423.18 L1479.26 1423.18 L1470.07 1423.18 L1460.88 1423.18 L1451.68 1423.18 L1442.49 1423.18 L1433.3 1423.18 L1424.1 1423.18 L1414.91 1423.18 L1405.72 1423.18 L1385.64 1423.18 L1365.57 1423.18 L1345.5 1423.18 L1325.43 1423.18 L1308.99 1423.18 L1292.55 1423.18 L1284.33 1423.18 L1276.11 1423.18 L1267.89 1423.18 L1259.67 1423.18 L1249.9 1423.18 L1240.14 1423.18 L1235.26 1423.18 L1230.37 1423.18 L1225.49 1423.18 L1220.61 1423.18 L1215.73 1423.18 L1210.84 1423.18 L1205.96 1423.18 L1201.08 1423.18 L1196.2 1423.18 L1191.31 1423.18 L1186.43 1423.18 L1181.55 1423.18 L1176.85 1423.18 L1172.16 1423.18 L1167.46 1423.18 L1162.77 1423.18 L1158.07 1423.18 L1153.38 1423.18 L1148.68 1423.18 L1143.98 1423.18 L1139.29 1423.18 L1134.59 1423.18 L1129.9 1423.18 L1125.2 1423.18 L1115.81 1423.18 L1106.42 1423.18 L1096.55 1423.18 L1086.68 1423.18 L1076.81 1423.18 L1066.94 1423.18 L1057.07 1423.18 L1047.2 1423.18 L1037.33 1423.18 L1027.45 1423.18 L991.745 1423.18 L956.035 1423.18 L947.161 1423.18 L938.286 1423.18 L929.411 1423.18 L920.537 1423.18 L911.662 1423.18 L902.787 1423.18 L893.913 1423.18 L885.038 1423.18 L876.898 1423.18 L868.758 1423.18 L860.618 1423.18 L852.478 1423.18 L844.338 1423.18 L836.198 1423.18 L828.058 1423.18 L819.919 1423.18 L810.636 1423.18 L801.354 1423.18 L792.071 1423.18 L782.789 1423.18 L773.506 1423.18 L764.224 1423.18 L754.941 1423.18 L745.659 1423.18 L735.213 1423.18 L724.768 1423.18 L714.323 1423.18 L703.878 1423.18 L682.987 1423.18 L662.097 1423.18 L644.066 1423.18 L626.035 1423.18 L608.004 1423.18 L589.973 1423.18 L522.701 1423.18 L449.73 1423.18 L382.555 1423.18 L303.104 1423.18 L170.896 1423.18 L156.598 1423.18  Z" fill="#e69f00" fill-rule="evenodd" fill-opacity="0.8"/>
<polyline clip-path="url(#clip632)" style="stroke:#e69f00; stroke-linecap:round; stroke-linejoin:round; stroke-width:4; stroke-opacity:0.8; fill:none" points="156.598,1423.18 170.896,1423.18 303.104,1423.17 382.555,1423.1 449.73,1422.78 522.701,1421.28 589.973,1416.29 608.004,1413.68 626.035,1410.2 644.066,1405.64 662.097,1399.71 682.987,1390.69 703.878,1378.82 714.323,1371.6 724.768,1363.42 735.213,1354.17 745.659,1343.76 754.941,1333.45 764.224,1322.07 773.506,1309.55 782.789,1295.83 792.071,1280.83 801.354,1264.48 810.636,1246.73 819.919,1227.51 828.058,1209.41 836.198,1190.12 844.338,1169.62 852.478,1147.87 860.618,1124.87 868.758,1100.6 876.898,1075.09 885.038,1048.32 893.913,1017.73 902.787,985.723 911.662,952.334 920.537,917.631 929.411,881.693 938.286,844.613 947.161,806.501 956.035,767.479 991.745,604.304 1027.45,440.126 1037.33,396.377 1047.2,353.912 1057.07,313.047 1066.94,274.092 1076.81,237.353 1086.68,203.128 1096.55,171.696 1106.42,143.322 1115.81,119.386 1125.2,98.6254 1129.9,89.4884 1134.59,81.2052 1139.29,73.7924 1143.98,67.2649 1148.68,61.636 1153.38,56.9172 1158.07,53.118 1162.77,50.2461 1167.46,48.3076 1172.16,47.3062 1176.85,47.2441 1181.55,48.1214 1186.43,50.0278 1191.31,52.9436 1196.2,56.8624 1201.08,61.7756 1205.96,67.6722 1210.84,74.5395 1215.73,82.3622 1220.61,91.1235 1225.49,100.804 1230.37,111.384 1235.26,122.839 1240.14,135.145 1249.9,162.206 1259.67,192.338 1267.89,219.903 1276.11,249.309 1284.33,280.39 1292.55,312.975 1308.99,381.941 1325.43,454.763 1345.5,546.805 1365.57,639.932 1385.64,731.844 1405.72,820.537 1414.91,859.622 1424.1,897.549 1433.3,934.206 1442.49,969.496 1451.68,1003.34 1460.88,1035.67 1470.07,1066.45 1479.26,1095.65 1487.75,1121.18 1496.24,1145.35 1504.73,1168.16 1513.22,1189.61 1521.72,1209.74 1530.21,1228.56 1538.7,1246.13 1547.19,1262.46 1555.79,1277.81 1564.39,1291.99 1572.99,1305.05 1581.59,1317.06 1590.19,1328.07 1598.79,1338.13 1607.39,1347.3 1615.99,1355.64 1635.27,1371.58 1654.55,1384.21 1673.83,1394.08 1693.11,1401.7 1710.58,1407.03 1728.05,1411.15 1745.52,1414.31 1762.98,1416.69 1802.99,1420.13 1842.99,1421.81 1880.03,1422.56 1917.07,1422.91 1990.1,1423.13 2061,1423.17 2133.69,1423.18 2213.33,1423.18 2329.02,1423.18 2352.76,1423.18 "/>
</svg>
