<?xml version="1.0" encoding="utf-8"?>
<svg xmlns="http://www.w3.org/2000/svg" xmlns:xlink="http://www.w3.org/1999/xlink" width="600" height="400" viewBox="0 0 2400 1600">
<defs>
  <clipPath id="clip440">
    <rect x="0" y="0" width="2400" height="1600"/>
  </clipPath>
</defs>
<path clip-path="url(#clip440)" d="M0 1600 L2400 1600 L2400 0 L0 0  Z" fill="#ffffff" fill-rule="evenodd" fill-opacity="1"/>
<defs>
  <clipPath id="clip441">
    <rect x="480" y="0" width="1681" height="1600"/>
  </clipPath>
</defs>
<path clip-path="url(#clip440)" d="M170.857 1423.18 L2352.76 1423.18 L2352.76 47.2441 L170.857 47.2441  Z" fill="#ffffff" fill-rule="evenodd" fill-opacity="1"/>
<defs>
  <clipPath id="clip442">
    <rect x="170" y="47" width="2183" height="1377"/>
  </clipPath>
</defs>
<polyline clip-path="url(#clip440)" style="stroke:#000000; stroke-linecap:round; stroke-linejoin:round; stroke-width:4; stroke-opacity:1; fill:none" points="170.857,1423.18 2352.76,1423.18 "/>
<polyline clip-path="url(#clip440)" style="stroke:#000000; stroke-linecap:round; stroke-linejoin:round; stroke-width:4; stroke-opacity:1; fill:none" points="170.857,47.2441 2352.76,47.2441 "/>
<polyline clip-path="url(#clip440)" style="stroke:#000000; stroke-linecap:round; stroke-linejoin:round; stroke-width:4; stroke-opacity:1; fill:none" points="468.389,1423.18 468.389,1404.28 "/>
<polyline clip-path="url(#clip440)" style="stroke:#000000; stroke-linecap:round; stroke-linejoin:round; stroke-width:4; stroke-opacity:1; fill:none" points="964.275,1423.18 964.275,1404.28 "/>
<polyline clip-path="url(#clip440)" style="stroke:#000000; stroke-linecap:round; stroke-linejoin:round; stroke-width:4; stroke-opacity:1; fill:none" points="1460.16,1423.18 1460.16,1404.28 "/>
<polyline clip-path="url(#clip440)" style="stroke:#000000; stroke-linecap:round; stroke-linejoin:round; stroke-width:4; stroke-opacity:1; fill:none" points="1956.05,1423.18 1956.05,1404.28 "/>
<polyline clip-path="url(#clip440)" style="stroke:#000000; stroke-linecap:round; stroke-linejoin:round; stroke-width:4; stroke-opacity:1; fill:none" points="170.857,1423.18 170.857,1413.73 "/>
<polyline clip-path="url(#clip440)" style="stroke:#000000; stroke-linecap:round; stroke-linejoin:round; stroke-width:4; stroke-opacity:1; fill:none" points="270.035,1423.18 270.035,1413.73 "/>
<polyline clip-path="url(#clip440)" style="stroke:#000000; stroke-linecap:round; stroke-linejoin:round; stroke-width:4; stroke-opacity:1; fill:none" points="369.212,1423.18 369.212,1413.73 "/>
<polyline clip-path="url(#clip440)" style="stroke:#000000; stroke-linecap:round; stroke-linejoin:round; stroke-width:4; stroke-opacity:1; fill:none" points="567.566,1423.18 567.566,1413.73 "/>
<polyline clip-path="url(#clip440)" style="stroke:#000000; stroke-linecap:round; stroke-linejoin:round; stroke-width:4; stroke-opacity:1; fill:none" points="666.743,1423.18 666.743,1413.73 "/>
<polyline clip-path="url(#clip440)" style="stroke:#000000; stroke-linecap:round; stroke-linejoin:round; stroke-width:4; stroke-opacity:1; fill:none" points="765.921,1423.18 765.921,1413.73 "/>
<polyline clip-path="url(#clip440)" style="stroke:#000000; stroke-linecap:round; stroke-linejoin:round; stroke-width:4; stroke-opacity:1; fill:none" points="865.098,1423.18 865.098,1413.73 "/>
<polyline clip-path="url(#clip440)" style="stroke:#000000; stroke-linecap:round; stroke-linejoin:round; stroke-width:4; stroke-opacity:1; fill:none" points="1063.45,1423.18 1063.45,1413.73 "/>
<polyline clip-path="url(#clip440)" style="stroke:#000000; stroke-linecap:round; stroke-linejoin:round; stroke-width:4; stroke-opacity:1; fill:none" points="1162.63,1423.18 1162.63,1413.73 "/>
<polyline clip-path="url(#clip440)" style="stroke:#000000; stroke-linecap:round; stroke-linejoin:round; stroke-width:4; stroke-opacity:1; fill:none" points="1261.81,1423.18 1261.81,1413.73 "/>
<polyline clip-path="url(#clip440)" style="stroke:#000000; stroke-linecap:round; stroke-linejoin:round; stroke-width:4; stroke-opacity:1; fill:none" points="1360.98,1423.18 1360.98,1413.73 "/>
<polyline clip-path="url(#clip440)" style="stroke:#000000; stroke-linecap:round; stroke-linejoin:round; stroke-width:4; stroke-opacity:1; fill:none" points="1559.34,1423.18 1559.34,1413.73 "/>
<polyline clip-path="url(#clip440)" style="stroke:#000000; stroke-linecap:round; stroke-linejoin:round; stroke-width:4; stroke-opacity:1; fill:none" points="1658.52,1423.18 1658.52,1413.73 "/>
<polyline clip-path="url(#clip440)" style="stroke:#000000; stroke-linecap:round; stroke-linejoin:round; stroke-width:4; stroke-opacity:1; fill:none" points="1757.69,1423.18 1757.69,1413.73 "/>
<polyline clip-path="url(#clip440)" style="stroke:#000000; stroke-linecap:round; stroke-linejoin:round; stroke-width:4; stroke-opacity:1; fill:none" points="1856.87,1423.18 1856.87,1413.73 "/>
<polyline clip-path="url(#clip440)" style="stroke:#000000; stroke-linecap:round; stroke-linejoin:round; stroke-width:4; stroke-opacity:1; fill:none" points="2055.22,1423.18 2055.22,1413.73 "/>
<polyline clip-path="url(#clip440)" style="stroke:#000000; stroke-linecap:round; stroke-linejoin:round; stroke-width:4; stroke-opacity:1; fill:none" points="2154.4,1423.18 2154.4,1413.73 "/>
<polyline clip-path="url(#clip440)" style="stroke:#000000; stroke-linecap:round; stroke-linejoin:round; stroke-width:4; stroke-opacity:1; fill:none" points="2253.58,1423.18 2253.58,1413.73 "/>
<polyline clip-path="url(#clip440)" style="stroke:#000000; stroke-linecap:round; stroke-linejoin:round; stroke-width:4; stroke-opacity:1; fill:none" points="2352.76,1423.18 2352.76,1413.73 "/>
<path clip-path="url(#clip440)" d="M415.415 1468.75 L445.091 1468.75 L445.091 1472.69 L415.415 1472.69 L415.415 1468.75 Z" fill="#000000" fill-rule="nonzero" fill-opacity="1" /><path clip-path="url(#clip440)" d="M459.211 1481.64 L475.53 1481.64 L475.53 1485.58 L453.586 1485.58 L453.586 1481.64 Q456.248 1478.89 460.831 1474.26 Q465.438 1469.61 466.618 1468.27 Q468.864 1465.74 469.743 1464.01 Q470.646 1462.25 470.646 1460.56 Q470.646 1457.8 468.702 1456.07 Q466.78 1454.33 463.678 1454.33 Q461.479 1454.33 459.026 1455.09 Q456.595 1455.86 453.817 1457.41 L453.817 1452.69 Q456.641 1451.55 459.095 1450.97 Q461.549 1450.39 463.586 1450.39 Q468.956 1450.39 472.151 1453.08 Q475.345 1455.77 475.345 1460.26 Q475.345 1462.39 474.535 1464.31 Q473.748 1466.2 471.641 1468.8 Q471.063 1469.47 467.961 1472.69 Q464.859 1475.88 459.211 1481.64 Z" fill="#000000" fill-rule="nonzero" fill-opacity="1" /><path clip-path="url(#clip440)" d="M485.345 1479.7 L490.229 1479.7 L490.229 1485.58 L485.345 1485.58 L485.345 1479.7 Z" fill="#000000" fill-rule="nonzero" fill-opacity="1" /><path clip-path="url(#clip440)" d="M500.461 1451.02 L518.817 1451.02 L518.817 1454.96 L504.743 1454.96 L504.743 1463.43 Q505.762 1463.08 506.78 1462.92 Q507.799 1462.73 508.817 1462.73 Q514.604 1462.73 517.984 1465.9 Q521.363 1469.08 521.363 1474.49 Q521.363 1480.07 517.891 1483.17 Q514.419 1486.25 508.099 1486.25 Q505.924 1486.25 503.655 1485.88 Q501.41 1485.51 499.002 1484.77 L499.002 1480.07 Q501.086 1481.2 503.308 1481.76 Q505.53 1482.32 508.007 1482.32 Q512.011 1482.32 514.349 1480.21 Q516.687 1478.1 516.687 1474.49 Q516.687 1470.88 514.349 1468.77 Q512.011 1466.67 508.007 1466.67 Q506.132 1466.67 504.257 1467.08 Q502.405 1467.5 500.461 1468.38 L500.461 1451.02 Z" fill="#000000" fill-rule="nonzero" fill-opacity="1" /><path clip-path="url(#clip440)" d="M941.659 1454.1 Q938.048 1454.1 936.22 1457.66 Q934.414 1461.2 934.414 1468.33 Q934.414 1475.44 936.22 1479.01 Q938.048 1482.55 941.659 1482.55 Q945.294 1482.55 947.099 1479.01 Q948.928 1475.44 948.928 1468.33 Q948.928 1461.2 947.099 1457.66 Q945.294 1454.1 941.659 1454.1 M941.659 1450.39 Q947.47 1450.39 950.525 1455 Q953.604 1459.58 953.604 1468.33 Q953.604 1477.06 950.525 1481.67 Q947.47 1486.25 941.659 1486.25 Q935.849 1486.25 932.771 1481.67 Q929.715 1477.06 929.715 1468.33 Q929.715 1459.58 932.771 1455 Q935.849 1450.39 941.659 1450.39 Z" fill="#000000" fill-rule="nonzero" fill-opacity="1" /><path clip-path="url(#clip440)" d="M961.821 1479.7 L966.706 1479.7 L966.706 1485.58 L961.821 1485.58 L961.821 1479.7 Z" fill="#000000" fill-rule="nonzero" fill-opacity="1" /><path clip-path="url(#clip440)" d="M986.891 1454.1 Q983.28 1454.1 981.451 1457.66 Q979.645 1461.2 979.645 1468.33 Q979.645 1475.44 981.451 1479.01 Q983.28 1482.55 986.891 1482.55 Q990.525 1482.55 992.33 1479.01 Q994.159 1475.44 994.159 1468.33 Q994.159 1461.2 992.33 1457.66 Q990.525 1454.1 986.891 1454.1 M986.891 1450.39 Q992.701 1450.39 995.756 1455 Q998.835 1459.58 998.835 1468.33 Q998.835 1477.06 995.756 1481.67 Q992.701 1486.25 986.891 1486.25 Q981.081 1486.25 978.002 1481.67 Q974.946 1477.06 974.946 1468.33 Q974.946 1459.58 978.002 1455 Q981.081 1450.39 986.891 1450.39 Z" fill="#000000" fill-rule="nonzero" fill-opacity="1" /><path clip-path="url(#clip440)" d="M1431.9 1481.64 L1448.22 1481.64 L1448.22 1485.58 L1426.27 1485.58 L1426.27 1481.64 Q1428.93 1478.89 1433.52 1474.26 Q1438.12 1469.61 1439.3 1468.27 Q1441.55 1465.74 1442.43 1464.01 Q1443.33 1462.25 1443.33 1460.56 Q1443.33 1457.8 1441.39 1456.07 Q1439.47 1454.33 1436.36 1454.33 Q1434.17 1454.33 1431.71 1455.09 Q1429.28 1455.86 1426.5 1457.41 L1426.5 1452.69 Q1429.33 1451.55 1431.78 1450.97 Q1434.24 1450.39 1436.27 1450.39 Q1441.64 1450.39 1444.84 1453.08 Q1448.03 1455.77 1448.03 1460.26 Q1448.03 1462.39 1447.22 1464.31 Q1446.43 1466.2 1444.33 1468.8 Q1443.75 1469.47 1440.65 1472.69 Q1437.55 1475.88 1431.9 1481.64 Z" fill="#000000" fill-rule="nonzero" fill-opacity="1" /><path clip-path="url(#clip440)" d="M1458.03 1479.7 L1462.92 1479.7 L1462.92 1485.58 L1458.03 1485.58 L1458.03 1479.7 Z" fill="#000000" fill-rule="nonzero" fill-opacity="1" /><path clip-path="url(#clip440)" d="M1473.15 1451.02 L1491.5 1451.02 L1491.5 1454.96 L1477.43 1454.96 L1477.43 1463.43 Q1478.45 1463.08 1479.47 1462.92 Q1480.49 1462.73 1481.5 1462.73 Q1487.29 1462.73 1490.67 1465.9 Q1494.05 1469.08 1494.05 1474.49 Q1494.05 1480.07 1490.58 1483.17 Q1487.11 1486.25 1480.79 1486.25 Q1478.61 1486.25 1476.34 1485.88 Q1474.1 1485.51 1471.69 1484.77 L1471.69 1480.07 Q1473.77 1481.2 1475.99 1481.76 Q1478.22 1482.32 1480.69 1482.32 Q1484.7 1482.32 1487.04 1480.21 Q1489.37 1478.1 1489.37 1474.49 Q1489.37 1470.88 1487.04 1468.77 Q1484.7 1466.67 1480.69 1466.67 Q1478.82 1466.67 1476.94 1467.08 Q1475.09 1467.5 1473.15 1468.38 L1473.15 1451.02 Z" fill="#000000" fill-rule="nonzero" fill-opacity="1" /><path clip-path="url(#clip440)" d="M1923.21 1451.02 L1941.57 1451.02 L1941.57 1454.96 L1927.49 1454.96 L1927.49 1463.43 Q1928.51 1463.08 1929.53 1462.92 Q1930.55 1462.73 1931.57 1462.73 Q1937.36 1462.73 1940.73 1465.9 Q1944.11 1469.08 1944.11 1474.49 Q1944.11 1480.07 1940.64 1483.17 Q1937.17 1486.25 1930.85 1486.25 Q1928.67 1486.25 1926.41 1485.88 Q1924.16 1485.51 1921.75 1484.77 L1921.75 1480.07 Q1923.84 1481.2 1926.06 1481.76 Q1928.28 1482.32 1930.76 1482.32 Q1934.76 1482.32 1937.1 1480.21 Q1939.44 1478.1 1939.44 1474.49 Q1939.44 1470.88 1937.1 1468.77 Q1934.76 1466.67 1930.76 1466.67 Q1928.88 1466.67 1927.01 1467.08 Q1925.16 1467.5 1923.21 1468.38 L1923.21 1451.02 Z" fill="#000000" fill-rule="nonzero" fill-opacity="1" /><path clip-path="url(#clip440)" d="M1953.33 1479.7 L1958.21 1479.7 L1958.21 1485.58 L1953.33 1485.58 L1953.33 1479.7 Z" fill="#000000" fill-rule="nonzero" fill-opacity="1" /><path clip-path="url(#clip440)" d="M1978.4 1454.1 Q1974.79 1454.1 1972.96 1457.66 Q1971.15 1461.2 1971.15 1468.33 Q1971.15 1475.44 1972.96 1479.01 Q1974.79 1482.55 1978.4 1482.55 Q1982.03 1482.55 1983.84 1479.01 Q1985.66 1475.44 1985.66 1468.33 Q1985.66 1461.2 1983.84 1457.66 Q1982.03 1454.1 1978.4 1454.1 M1978.4 1450.39 Q1984.21 1450.39 1987.26 1455 Q1990.34 1459.58 1990.34 1468.33 Q1990.34 1477.06 1987.26 1481.67 Q1984.21 1486.25 1978.4 1486.25 Q1972.59 1486.25 1969.51 1481.67 Q1966.45 1477.06 1966.45 1468.33 Q1966.45 1459.58 1969.51 1455 Q1972.59 1450.39 1978.4 1450.39 Z" fill="#000000" fill-rule="nonzero" fill-opacity="1" /><path clip-path="url(#clip440)" d="M2242.99 1532.4 L2230.1 1549.74 L2243.66 1568.04 L2236.75 1568.04 L2226.38 1554.04 L2216 1568.04 L2209.1 1568.04 L2222.94 1549.39 L2210.27 1532.4 L2217.18 1532.4 L2226.63 1545.1 L2236.09 1532.4 L2242.99 1532.4 Z" fill="#000000" fill-rule="nonzero" fill-opacity="1" /><polyline clip-path="url(#clip440)" style="stroke:#000000; stroke-linecap:round; stroke-linejoin:round; stroke-width:4; stroke-opacity:1; fill:none" points="170.857,1423.18 170.857,47.2441 "/>
<polyline clip-path="url(#clip440)" style="stroke:#000000; stroke-linecap:round; stroke-linejoin:round; stroke-width:4; stroke-opacity:1; fill:none" points="2352.76,1423.18 2352.76,47.2441 "/>
<polyline clip-path="url(#clip440)" style="stroke:#000000; stroke-linecap:round; stroke-linejoin:round; stroke-width:4; stroke-opacity:1; fill:none" points="170.857,1423.18 189.755,1423.18 "/>
<polyline clip-path="url(#clip440)" style="stroke:#000000; stroke-linecap:round; stroke-linejoin:round; stroke-width:4; stroke-opacity:1; fill:none" points="170.857,1106.46 189.755,1106.46 "/>
<polyline clip-path="url(#clip440)" style="stroke:#000000; stroke-linecap:round; stroke-linejoin:round; stroke-width:4; stroke-opacity:1; fill:none" points="170.857,789.747 189.755,789.747 "/>
<polyline clip-path="url(#clip440)" style="stroke:#000000; stroke-linecap:round; stroke-linejoin:round; stroke-width:4; stroke-opacity:1; fill:none" points="170.857,473.031 189.755,473.031 "/>
<polyline clip-path="url(#clip440)" style="stroke:#000000; stroke-linecap:round; stroke-linejoin:round; stroke-width:4; stroke-opacity:1; fill:none" points="170.857,156.315 189.755,156.315 "/>
<polyline clip-path="url(#clip440)" style="stroke:#000000; stroke-linecap:round; stroke-linejoin:round; stroke-width:4; stroke-opacity:1; fill:none" points="170.857,1359.84 180.306,1359.84 "/>
<polyline clip-path="url(#clip440)" style="stroke:#000000; stroke-linecap:round; stroke-linejoin:round; stroke-width:4; stroke-opacity:1; fill:none" points="170.857,1296.49 180.306,1296.49 "/>
<polyline clip-path="url(#clip440)" style="stroke:#000000; stroke-linecap:round; stroke-linejoin:round; stroke-width:4; stroke-opacity:1; fill:none" points="170.857,1233.15 180.306,1233.15 "/>
<polyline clip-path="url(#clip440)" style="stroke:#000000; stroke-linecap:round; stroke-linejoin:round; stroke-width:4; stroke-opacity:1; fill:none" points="170.857,1169.81 180.306,1169.81 "/>
<polyline clip-path="url(#clip440)" style="stroke:#000000; stroke-linecap:round; stroke-linejoin:round; stroke-width:4; stroke-opacity:1; fill:none" points="170.857,1043.12 180.306,1043.12 "/>
<polyline clip-path="url(#clip440)" style="stroke:#000000; stroke-linecap:round; stroke-linejoin:round; stroke-width:4; stroke-opacity:1; fill:none" points="170.857,979.777 180.306,979.777 "/>
<polyline clip-path="url(#clip440)" style="stroke:#000000; stroke-linecap:round; stroke-linejoin:round; stroke-width:4; stroke-opacity:1; fill:none" points="170.857,916.434 180.306,916.434 "/>
<polyline clip-path="url(#clip440)" style="stroke:#000000; stroke-linecap:round; stroke-linejoin:round; stroke-width:4; stroke-opacity:1; fill:none" points="170.857,853.09 180.306,853.09 "/>
<polyline clip-path="url(#clip440)" style="stroke:#000000; stroke-linecap:round; stroke-linejoin:round; stroke-width:4; stroke-opacity:1; fill:none" points="170.857,726.404 180.306,726.404 "/>
<polyline clip-path="url(#clip440)" style="stroke:#000000; stroke-linecap:round; stroke-linejoin:round; stroke-width:4; stroke-opacity:1; fill:none" points="170.857,663.061 180.306,663.061 "/>
<polyline clip-path="url(#clip440)" style="stroke:#000000; stroke-linecap:round; stroke-linejoin:round; stroke-width:4; stroke-opacity:1; fill:none" points="170.857,599.717 180.306,599.717 "/>
<polyline clip-path="url(#clip440)" style="stroke:#000000; stroke-linecap:round; stroke-linejoin:round; stroke-width:4; stroke-opacity:1; fill:none" points="170.857,536.374 180.306,536.374 "/>
<polyline clip-path="url(#clip440)" style="stroke:#000000; stroke-linecap:round; stroke-linejoin:round; stroke-width:4; stroke-opacity:1; fill:none" points="170.857,409.688 180.306,409.688 "/>
<polyline clip-path="url(#clip440)" style="stroke:#000000; stroke-linecap:round; stroke-linejoin:round; stroke-width:4; stroke-opacity:1; fill:none" points="170.857,346.344 180.306,346.344 "/>
<polyline clip-path="url(#clip440)" style="stroke:#000000; stroke-linecap:round; stroke-linejoin:round; stroke-width:4; stroke-opacity:1; fill:none" points="170.857,283.001 180.306,283.001 "/>
<polyline clip-path="url(#clip440)" style="stroke:#000000; stroke-linecap:round; stroke-linejoin:round; stroke-width:4; stroke-opacity:1; fill:none" points="170.857,219.658 180.306,219.658 "/>
<polyline clip-path="url(#clip440)" style="stroke:#000000; stroke-linecap:round; stroke-linejoin:round; stroke-width:4; stroke-opacity:1; fill:none" points="170.857,92.9713 180.306,92.9713 "/>
<path clip-path="url(#clip440)" d="M122.913 1408.98 Q119.302 1408.98 117.473 1412.54 Q115.668 1416.08 115.668 1423.21 Q115.668 1430.32 117.473 1433.89 Q119.302 1437.43 122.913 1437.43 Q126.547 1437.43 128.353 1433.89 Q130.182 1430.32 130.182 1423.21 Q130.182 1416.08 128.353 1412.54 Q126.547 1408.98 122.913 1408.98 M122.913 1405.27 Q128.723 1405.27 131.779 1409.88 Q134.857 1414.46 134.857 1423.21 Q134.857 1431.94 131.779 1436.55 Q128.723 1441.13 122.913 1441.13 Q117.103 1441.13 114.024 1436.55 Q110.969 1431.94 110.969 1423.21 Q110.969 1414.46 114.024 1409.88 Q117.103 1405.27 122.913 1405.27 Z" fill="#000000" fill-rule="nonzero" fill-opacity="1" /><path clip-path="url(#clip440)" d="M82.7975 1089.18 L101.154 1089.18 L101.154 1093.12 L87.0799 1093.12 L87.0799 1101.59 Q88.0984 1101.24 89.1169 1101.08 Q90.1354 1100.9 91.1539 1100.9 Q96.941 1100.9 100.321 1104.07 Q103.7 1107.24 103.7 1112.66 Q103.7 1118.23 100.228 1121.34 Q96.7558 1124.41 90.4364 1124.41 Q88.2604 1124.41 85.9919 1124.04 Q83.7466 1123.67 81.3392 1122.93 L81.3392 1118.23 Q83.4225 1119.37 85.6447 1119.92 Q87.8669 1120.48 90.3438 1120.48 Q94.3484 1120.48 96.6863 1118.37 Q99.0243 1116.27 99.0243 1112.66 Q99.0243 1109.04 96.6863 1106.94 Q94.3484 1104.83 90.3438 1104.83 Q88.4688 1104.83 86.5938 1105.25 Q84.7419 1105.66 82.7975 1106.54 L82.7975 1089.18 Z" fill="#000000" fill-rule="nonzero" fill-opacity="1" /><path clip-path="url(#clip440)" d="M122.913 1092.26 Q119.302 1092.26 117.473 1095.83 Q115.668 1099.37 115.668 1106.5 Q115.668 1113.6 117.473 1117.17 Q119.302 1120.71 122.913 1120.71 Q126.547 1120.71 128.353 1117.17 Q130.182 1113.6 130.182 1106.5 Q130.182 1099.37 128.353 1095.83 Q126.547 1092.26 122.913 1092.26 M122.913 1088.56 Q128.723 1088.56 131.779 1093.16 Q134.857 1097.75 134.857 1106.5 Q134.857 1115.23 131.779 1119.83 Q128.723 1124.41 122.913 1124.41 Q117.103 1124.41 114.024 1119.83 Q110.969 1115.23 110.969 1106.5 Q110.969 1097.75 114.024 1093.16 Q117.103 1088.56 122.913 1088.56 Z" fill="#000000" fill-rule="nonzero" fill-opacity="1" /><path clip-path="url(#clip440)" d="M53.3995 803.092 L61.0384 803.092 L61.0384 776.726 L52.7282 778.393 L52.7282 774.134 L60.9921 772.467 L65.668 772.467 L65.668 803.092 L73.3068 803.092 L73.3068 807.027 L53.3995 807.027 L53.3995 803.092 Z" fill="#000000" fill-rule="nonzero" fill-opacity="1" /><path clip-path="url(#clip440)" d="M92.7512 775.546 Q89.1401 775.546 87.3114 779.111 Q85.5058 782.652 85.5058 789.782 Q85.5058 796.888 87.3114 800.453 Q89.1401 803.995 92.7512 803.995 Q96.3854 803.995 98.1909 800.453 Q100.02 796.888 100.02 789.782 Q100.02 782.652 98.1909 779.111 Q96.3854 775.546 92.7512 775.546 M92.7512 771.842 Q98.5613 771.842 101.617 776.449 Q104.696 781.032 104.696 789.782 Q104.696 798.509 101.617 803.115 Q98.5613 807.698 92.7512 807.698 Q86.941 807.698 83.8623 803.115 Q80.8068 798.509 80.8068 789.782 Q80.8068 781.032 83.8623 776.449 Q86.941 771.842 92.7512 771.842 Z" fill="#000000" fill-rule="nonzero" fill-opacity="1" /><path clip-path="url(#clip440)" d="M122.913 775.546 Q119.302 775.546 117.473 779.111 Q115.668 782.652 115.668 789.782 Q115.668 796.888 117.473 800.453 Q119.302 803.995 122.913 803.995 Q126.547 803.995 128.353 800.453 Q130.182 796.888 130.182 789.782 Q130.182 782.652 128.353 779.111 Q126.547 775.546 122.913 775.546 M122.913 771.842 Q128.723 771.842 131.779 776.449 Q134.857 781.032 134.857 789.782 Q134.857 798.509 131.779 803.115 Q128.723 807.698 122.913 807.698 Q117.103 807.698 114.024 803.115 Q110.969 798.509 110.969 789.782 Q110.969 781.032 114.024 776.449 Q117.103 771.842 122.913 771.842 Z" fill="#000000" fill-rule="nonzero" fill-opacity="1" /><path clip-path="url(#clip440)" d="M53.3995 486.376 L61.0384 486.376 L61.0384 460.01 L52.7282 461.677 L52.7282 457.418 L60.9921 455.751 L65.668 455.751 L65.668 486.376 L73.3068 486.376 L73.3068 490.311 L53.3995 490.311 L53.3995 486.376 Z" fill="#000000" fill-rule="nonzero" fill-opacity="1" /><path clip-path="url(#clip440)" d="M82.7975 455.751 L101.154 455.751 L101.154 459.686 L87.0799 459.686 L87.0799 468.158 Q88.0984 467.811 89.1169 467.649 Q90.1354 467.464 91.1539 467.464 Q96.941 467.464 100.321 470.635 Q103.7 473.806 103.7 479.223 Q103.7 484.802 100.228 487.903 Q96.7558 490.982 90.4364 490.982 Q88.2604 490.982 85.9919 490.612 Q83.7466 490.241 81.3392 489.501 L81.3392 484.802 Q83.4225 485.936 85.6447 486.491 Q87.8669 487.047 90.3438 487.047 Q94.3484 487.047 96.6863 484.941 Q99.0243 482.834 99.0243 479.223 Q99.0243 475.612 96.6863 473.505 Q94.3484 471.399 90.3438 471.399 Q88.4688 471.399 86.5938 471.816 Q84.7419 472.232 82.7975 473.112 L82.7975 455.751 Z" fill="#000000" fill-rule="nonzero" fill-opacity="1" /><path clip-path="url(#clip440)" d="M122.913 458.83 Q119.302 458.83 117.473 462.394 Q115.668 465.936 115.668 473.066 Q115.668 480.172 117.473 483.737 Q119.302 487.278 122.913 487.278 Q126.547 487.278 128.353 483.737 Q130.182 480.172 130.182 473.066 Q130.182 465.936 128.353 462.394 Q126.547 458.83 122.913 458.83 M122.913 455.126 Q128.723 455.126 131.779 459.732 Q134.857 464.316 134.857 473.066 Q134.857 481.792 131.779 486.399 Q128.723 490.982 122.913 490.982 Q117.103 490.982 114.024 486.399 Q110.969 481.792 110.969 473.066 Q110.969 464.316 114.024 459.732 Q117.103 455.126 122.913 455.126 Z" fill="#000000" fill-rule="nonzero" fill-opacity="1" /><path clip-path="url(#clip440)" d="M56.6171 169.659 L72.9365 169.659 L72.9365 173.595 L50.9921 173.595 L50.9921 169.659 Q53.6541 166.905 58.2375 162.275 Q62.8439 157.622 64.0245 156.28 Q66.2698 153.757 67.1494 152.021 Q68.0522 150.261 68.0522 148.572 Q68.0522 145.817 66.1078 144.081 Q64.1865 142.345 61.0847 142.345 Q58.8856 142.345 56.4319 143.109 Q54.0014 143.872 51.2236 145.423 L51.2236 140.701 Q54.0477 139.567 56.5014 138.988 Q58.955 138.41 60.9921 138.41 Q66.3624 138.41 69.5568 141.095 Q72.7513 143.78 72.7513 148.271 Q72.7513 150.4 71.9411 152.322 Q71.1541 154.22 69.0476 156.812 Q68.4689 157.484 65.367 160.701 Q62.2652 163.896 56.6171 169.659 Z" fill="#000000" fill-rule="nonzero" fill-opacity="1" /><path clip-path="url(#clip440)" d="M92.7512 142.113 Q89.1401 142.113 87.3114 145.678 Q85.5058 149.22 85.5058 156.349 Q85.5058 163.456 87.3114 167.02 Q89.1401 170.562 92.7512 170.562 Q96.3854 170.562 98.1909 167.02 Q100.02 163.456 100.02 156.349 Q100.02 149.22 98.1909 145.678 Q96.3854 142.113 92.7512 142.113 M92.7512 138.41 Q98.5613 138.41 101.617 143.016 Q104.696 147.599 104.696 156.349 Q104.696 165.076 101.617 169.683 Q98.5613 174.266 92.7512 174.266 Q86.941 174.266 83.8623 169.683 Q80.8068 165.076 80.8068 156.349 Q80.8068 147.599 83.8623 143.016 Q86.941 138.41 92.7512 138.41 Z" fill="#000000" fill-rule="nonzero" fill-opacity="1" /><path clip-path="url(#clip440)" d="M122.913 142.113 Q119.302 142.113 117.473 145.678 Q115.668 149.22 115.668 156.349 Q115.668 163.456 117.473 167.02 Q119.302 170.562 122.913 170.562 Q126.547 170.562 128.353 167.02 Q130.182 163.456 130.182 156.349 Q130.182 149.22 128.353 145.678 Q126.547 142.113 122.913 142.113 M122.913 138.41 Q128.723 138.41 131.779 143.016 Q134.857 147.599 134.857 156.349 Q134.857 165.076 131.779 169.683 Q128.723 174.266 122.913 174.266 Q117.103 174.266 114.024 169.683 Q110.969 165.076 110.969 156.349 Q110.969 147.599 114.024 143.016 Q117.103 138.41 122.913 138.41 Z" fill="#000000" fill-rule="nonzero" fill-opacity="1" /><polyline clip-path="url(#clip442)" style="stroke:#e69f00; stroke-linecap:round; stroke-linejoin:round; stroke-width:4; stroke-opacity:1; fill:none" points="170.857,1423.18 170.857,73.9683 192.897,73.9683 192.897,54.9653 214.936,54.9653 214.936,219.658 236.976,219.658 236.976,130.977 259.015,130.977 259.015,187.986 281.054,187.986 281.054,276.667 303.094,276.667 303.094,346.344 325.133,346.344 325.133,130.977 347.172,130.977 347.172,175.318 369.212,175.318 369.212,270.332 391.251,270.332 391.251,485.7 413.291,485.7 413.291,359.013 435.33,359.013 435.33,321.007 457.369,321.007 457.369,435.025 479.409,435.025 479.409,403.353 501.448,403.353 501.448,460.362 523.487,460.362 523.487,485.7 545.527,485.7 545.527,460.362 567.566,460.362 567.566,340.01 589.606,340.01 589.606,568.046 611.645,568.046 611.645,542.708 633.684,542.708 633.684,625.055 655.724,625.055 655.724,631.389 677.763,631.389 677.763,568.046 699.803,568.046 699.803,745.407 721.842,745.407 721.842,675.729 743.881,675.729 743.881,523.705 765.921,523.705 765.921,625.055 787.96,625.055 787.96,656.726 809.999,656.726 809.999,751.741 832.039,751.741 832.039,688.398 854.078,688.398 854.078,751.741 876.118,751.741 876.118,707.401 898.157,707.401 898.157,580.714 920.196,580.714 920.196,561.711 942.236,561.711 942.236,631.389 964.275,631.389 964.275,454.028 986.314,454.028 986.314,549.043 1008.35,549.043 1008.35,580.714 1030.39,580.714 1030.39,492.034 1052.43,492.034 1052.43,517.371 1074.47,517.371 1074.47,492.034 1096.51,492.034 1096.51,574.38 1118.55,574.38 1118.55,523.705 1140.59,523.705 1140.59,466.697 1162.63,466.697 1162.63,416.022 1184.67,416.022 1184.67,435.025 1206.71,435.025 1206.71,517.371 1228.75,517.371 1228.75,473.031 1250.79,473.031 1250.79,612.386 1272.83,612.386 1272.83,606.052 1294.87,606.052 1294.87,580.714 1316.91,580.714 1316.91,682.064 1338.94,682.064 1338.94,764.41 1360.98,764.41 1360.98,688.398 1383.02,688.398 1383.02,802.416 1405.06,802.416 1405.06,827.753 1427.1,827.753 1427.1,872.093 1449.14,872.093 1449.14,960.774 1471.18,960.774 1471.18,1017.78 1493.22,1017.78 1493.22,903.765 1515.26,903.765 1515.26,1087.46 1537.3,1087.46 1559.34,1087.46 1559.34,1138.14 1581.38,1138.14 1581.38,1036.79 1603.42,1036.79 1603.42,1055.79 1625.46,1055.79 1625.46,1131.8 1647.5,1131.8 1647.5,1150.8 1669.54,1150.8 1669.54,1188.81 1691.57,1188.81 1691.57,1144.47 1713.61,1144.47 1735.65,1144.47 1735.65,1138.14 1757.69,1138.14 1757.69,1169.81 1779.73,1169.81 1801.77,1169.81 1801.77,1157.14 1823.81,1157.14 1823.81,1264.82 1845.85,1264.82 1845.85,1226.82 1867.89,1226.82 1867.89,1157.14 1889.93,1157.14 1889.93,1119.13 1911.97,1119.13 1911.97,1182.48 1934.01,1182.48 1934.01,1163.47 1956.05,1163.47 1956.05,1226.82 1978.09,1226.82 1978.09,1220.48 2000.13,1220.48 2000.13,1214.15 2022.17,1214.15 2022.17,1169.81 2044.2,1169.81 2044.2,1277.49 2066.24,1277.49 2066.24,1264.82 2088.28,1264.82 2088.28,1226.82 2110.32,1226.82 2110.32,1271.16 2132.36,1271.16 2132.36,1245.82 2154.4,1245.82 2154.4,1290.16 2176.44,1290.16 2176.44,1271.16 2198.48,1271.16 2198.48,1258.49 2220.52,1258.49 2220.52,1264.82 2242.56,1264.82 2242.56,1239.48 2264.6,1239.48 2264.6,1264.82 2286.64,1264.82 2286.64,1207.81 2308.68,1207.81 2308.68,1233.15 2330.72,1233.15 2330.72,1226.82 2352.76,1226.82 2352.76,1423.18 "/>
<polyline clip-path="url(#clip442)" style="stroke:#56b4e9; stroke-linecap:round; stroke-linejoin:round; stroke-width:4; stroke-opacity:1; fill:none" points="170.857,77.6016 192.676,106.881 214.495,135.523 236.314,163.542 258.133,190.951 279.952,217.764 301.771,243.992 323.59,269.649 345.409,294.746 367.228,319.294 389.047,343.304 410.866,366.784 432.685,389.742 454.504,412.183 476.323,434.106 498.142,455.51 519.961,476.383 541.78,496.706 563.599,516.447 585.418,535.559 607.237,553.974 629.056,571.603 650.875,588.327 672.694,603.992 694.513,618.415 716.332,631.37 738.151,642.603 759.97,651.825 781.789,658.733 803.608,663.017 825.427,664.383 847.246,662.581 869.065,657.428 890.884,648.848 912.703,636.894 934.522,621.783 956.341,603.911 978.16,583.865 999.979,562.42 1021.8,540.518 1043.62,519.232 1065.44,499.719 1087.25,483.153 1109.07,470.657 1130.89,463.23 1152.71,461.68 1174.53,466.567 1196.35,478.161 1218.17,496.426 1239.99,521.018 1261.81,551.317 1283.63,586.467 1305.44,625.438 1327.26,667.096 1349.08,710.275 1370.9,753.847 1392.72,796.78 1414.54,838.185 1436.36,877.348 1458.18,913.744 1480,947.039 1501.82,977.075 1523.63,1003.84 1545.45,1027.47 1567.27,1048.17 1589.09,1066.21 1610.91,1081.91 1632.73,1095.59 1654.55,1107.56 1676.37,1118.11 1698.19,1127.5 1720.01,1135.96 1741.82,1143.68 1763.64,1150.8 1785.46,1157.45 1807.28,1163.74 1829.1,1169.72 1850.92,1175.46 1872.74,1181 1894.56,1186.37 1916.38,1191.58 1938.2,1196.66 1960.01,1201.61 1981.83,1206.44 2003.65,1211.17 2025.47,1215.79 2047.29,1220.3 2069.11,1224.72 2090.93,1229.04 2112.75,1233.26 2134.57,1237.4 2156.39,1241.44 2178.2,1245.39 2200.02,1249.26 2221.84,1253.05 2243.66,1256.75 2265.48,1260.37 2287.3,1263.91 2309.12,1267.38 2330.94,1270.77 2352.76,1274.09 "/>
<polyline clip-path="url(#clip442)" style="stroke:#009e73; stroke-linecap:round; stroke-linejoin:round; stroke-width:4; stroke-opacity:1; fill:none" points="170.857,47.2441 192.676,77.9095 214.495,107.891 236.314,137.205 258.133,165.866 279.952,193.887 301.771,221.284 323.59,248.069 345.409,274.257 367.228,299.861 389.047,324.891 410.866,349.359 432.685,373.276 454.504,396.649 476.323,419.483 498.142,441.781 519.961,463.538 541.78,484.744 563.599,505.376 585.418,525.399 607.237,544.759 629.056,563.38 650.875,581.156 672.694,597.949 694.513,613.579 716.332,627.827 738.151,640.43 759.97,651.086 781.789,659.459 803.608,665.197 825.427,667.949 847.246,667.395 869.065,663.277 890.884,655.441 912.703,643.87 934.522,628.727 956.341,610.378 978.16,589.417 999.979,566.66 1021.8,543.133 1043.62,520.032 1065.44,498.665 1087.25,480.373 1109.07,466.452 1130.89,458.055 1152.71,456.113 1174.53,461.262 1196.35,473.796 1218.17,493.639 1239.99,520.356 1261.81,553.188 1283.63,591.108 1305.44,632.902 1327.26,677.254 1349.08,722.838 1370.9,768.398 1392.72,812.819 1414.54,855.171 1436.36,894.745 1458.18,931.06 1480,963.851 1501.82,993.05 1523.63,1018.75 1545.45,1041.16 1567.27,1060.6 1589.09,1077.39 1610.91,1091.92 1632.73,1104.55 1654.55,1115.6 1676.37,1125.37 1698.19,1134.13 1720.01,1142.08 1741.82,1149.4 1763.64,1156.23 1785.46,1162.67 1807.28,1168.8 1829.1,1174.68 1850.92,1180.36 1872.74,1185.86 1894.56,1191.2 1916.38,1196.4 1938.2,1201.47 1960.01,1206.43 1981.83,1211.26 2003.65,1215.99 2025.47,1220.61 2047.29,1225.13 2069.11,1229.54 2090.93,1233.86 2112.75,1238.08 2134.57,1242.2 2156.39,1246.24 2178.2,1250.18 2200.02,1254.03 2221.84,1257.8 2243.66,1261.49 2265.48,1265.09 2287.3,1268.62 2309.12,1272.06 2330.94,1275.43 2352.76,1278.72 "/>
<path clip-path="url(#clip442)" d="M170.857 1423.18 L192.676 1423.18 L214.495 1423.18 L236.314 1423.18 L258.133 1423.18 L279.952 1423.18 L301.771 1423.18 L323.59 1423.18 L345.409 1423.18 L367.228 1423.17 L389.047 1423.17 L410.866 1423.16 L432.685 1423.14 L454.504 1423.12 L476.323 1423.08 L498.142 1423.01 L519.961 1422.9 L541.78 1422.72 L563.599 1422.45 L585.418 1422.03 L607.237 1421.41 L629.056 1420.49 L650.875 1419.17 L672.694 1417.28 L694.513 1414.65 L716.332 1411.05 L738.151 1406.19 L759.97 1399.78 L781.789 1391.47 L803.608 1380.89 L825.427 1367.7 L847.246 1351.55 L869.065 1332.18 L890.884 1309.44 L912.703 1283.29 L934.522 1253.9 L956.341 1221.61 L978.16 1187.03 L999.979 1150.95 L1021.8 1114.41 L1043.62 1078.57 L1065.44 1044.76 L1087.25 1014.29 L1109.07 988.473 L1130.89 968.442 L1152.71 955.125 L1174.53 949.153 L1196.35 950.813 L1218.17 960.025 L1239.99 976.348 L1261.81 999.017 L1283.63 1027 L1305.44 1059.08 L1327.26 1093.93 L1349.08 1130.23 L1370.9 1166.71 L1392.72 1202.26 L1414.54 1235.93 L1436.36 1267.02 L1458.18 1295.03 L1480 1319.71 L1501.82 1340.98 L1523.63 1358.93 L1545.45 1373.76 L1567.27 1385.78 L1589.09 1395.33 L1610.91 1402.77 L1632.73 1408.47 L1654.55 1412.74 L1676.37 1415.9 L1698.19 1418.18 L1720.01 1419.8 L1741.82 1420.93 L1763.64 1421.71 L1785.46 1422.23 L1807.28 1422.58 L1829.1 1422.81 L1850.92 1422.95 L1872.74 1423.04 L1894.56 1423.1 L1916.38 1423.13 L1938.2 1423.15 L1960.01 1423.16 L1981.83 1423.17 L2003.65 1423.18 L2025.47 1423.18 L2047.29 1423.18 L2069.11 1423.18 L2090.93 1423.18 L2112.75 1423.18 L2134.57 1423.18 L2156.39 1423.18 L2178.2 1423.18 L2200.02 1423.18 L2221.84 1423.18 L2243.66 1423.18 L2265.48 1423.18 L2287.3 1423.18 L2309.12 1423.18 L2330.94 1423.18 L2352.76 1423.18 L2352.76 1423.18 L2330.94 1423.18 L2309.12 1423.18 L2287.3 1423.18 L2265.48 1423.18 L2243.66 1423.18 L2221.84 1423.18 L2200.02 1423.18 L2178.2 1423.18 L2156.39 1423.18 L2134.57 1423.18 L2112.75 1423.18 L2090.93 1423.18 L2069.11 1423.18 L2047.29 1423.18 L2025.47 1423.18 L2003.65 1423.18 L1981.83 1423.18 L1960.01 1423.18 L1938.2 1423.18 L1916.38 1423.18 L1894.56 1423.18 L1872.74 1423.18 L1850.92 1423.18 L1829.1 1423.18 L1807.28 1423.18 L1785.46 1423.18 L1763.64 1423.18 L1741.82 1423.18 L1720.01 1423.18 L1698.19 1423.18 L1676.37 1423.18 L1654.55 1423.18 L1632.73 1423.18 L1610.91 1423.18 L1589.09 1423.18 L1567.27 1423.18 L1545.45 1423.18 L1523.63 1423.18 L1501.82 1423.18 L1480 1423.18 L1458.18 1423.18 L1436.36 1423.18 L1414.54 1423.18 L1392.72 1423.18 L1370.9 1423.18 L1349.08 1423.18 L1327.26 1423.18 L1305.44 1423.18 L1283.63 1423.18 L1261.81 1423.18 L1239.99 1423.18 L1218.17 1423.18 L1196.35 1423.18 L1174.53 1423.18 L1152.71 1423.18 L1130.89 1423.18 L1109.07 1423.18 L1087.25 1423.18 L1065.44 1423.18 L1043.62 1423.18 L1021.8 1423.18 L999.979 1423.18 L978.16 1423.18 L956.341 1423.18 L934.522 1423.18 L912.703 1423.18 L890.884 1423.18 L869.065 1423.18 L847.246 1423.18 L825.427 1423.18 L803.608 1423.18 L781.789 1423.18 L759.97 1423.18 L738.151 1423.18 L716.332 1423.18 L694.513 1423.18 L672.694 1423.18 L650.875 1423.18 L629.056 1423.18 L607.237 1423.18 L585.418 1423.18 L563.599 1423.18 L541.78 1423.18 L519.961 1423.18 L498.142 1423.18 L476.323 1423.18 L454.504 1423.18 L432.685 1423.18 L410.866 1423.18 L389.047 1423.18 L367.228 1423.18 L345.409 1423.18 L323.59 1423.18 L301.771 1423.18 L279.952 1423.18 L258.133 1423.18 L236.314 1423.18 L214.495 1423.18 L192.676 1423.18 L170.857 1423.18  Z" fill="#f0e442" fill-rule="evenodd" fill-opacity="1"/>
<polyline clip-path="url(#clip442)" style="stroke:#f0e442; stroke-linecap:round; stroke-linejoin:round; stroke-width:4; stroke-opacity:1; fill:none" points="170.857,1423.18 192.676,1423.18 214.495,1423.18 236.314,1423.18 258.133,1423.18 279.952,1423.18 301.771,1423.18 323.59,1423.18 345.409,1423.18 367.228,1423.17 389.047,1423.17 410.866,1423.16 432.685,1423.14 454.504,1423.12 476.323,1423.08 498.142,1423.01 519.961,1422.9 541.78,1422.72 563.599,1422.45 585.418,1422.03 607.237,1421.41 629.056,1420.49 650.875,1419.17 672.694,1417.28 694.513,1414.65 716.332,1411.05 738.151,1406.19 759.97,1399.78 781.789,1391.47 803.608,1380.89 825.427,1367.7 847.246,1351.55 869.065,1332.18 890.884,1309.44 912.703,1283.29 934.522,1253.9 956.341,1221.61 978.16,1187.03 999.979,1150.95 1021.8,1114.41 1043.62,1078.57 1065.44,1044.76 1087.25,1014.29 1109.07,988.473 1130.89,968.442 1152.71,955.125 1174.53,949.153 1196.35,950.813 1218.17,960.025 1239.99,976.348 1261.81,999.017 1283.63,1027 1305.44,1059.08 1327.26,1093.93 1349.08,1130.23 1370.9,1166.71 1392.72,1202.26 1414.54,1235.93 1436.36,1267.02 1458.18,1295.03 1480,1319.71 1501.82,1340.98 1523.63,1358.93 1545.45,1373.76 1567.27,1385.78 1589.09,1395.33 1610.91,1402.77 1632.73,1408.47 1654.55,1412.74 1676.37,1415.9 1698.19,1418.18 1720.01,1419.8 1741.82,1420.93 1763.64,1421.71 1785.46,1422.23 1807.28,1422.58 1829.1,1422.81 1850.92,1422.95 1872.74,1423.04 1894.56,1423.1 1916.38,1423.13 1938.2,1423.15 1960.01,1423.16 1981.83,1423.17 2003.65,1423.18 2025.47,1423.18 2047.29,1423.18 2069.11,1423.18 2090.93,1423.18 2112.75,1423.18 2134.57,1423.18 2156.39,1423.18 2178.2,1423.18 2200.02,1423.18 2221.84,1423.18 2243.66,1423.18 2265.48,1423.18 2287.3,1423.18 2309.12,1423.18 2330.94,1423.18 2352.76,1423.18 "/>
<polyline clip-path="url(#clip442)" style="stroke:#0072b2; stroke-linecap:round; stroke-linejoin:round; stroke-width:4; stroke-opacity:1; fill:none" stroke-dasharray="16, 10" points="170.857,47.2441 192.676,77.9095 214.495,107.892 236.314,137.205 258.133,165.866 279.952,193.887 301.771,221.285 323.59,248.071 345.409,274.261 367.228,299.867 389.047,324.902 410.866,349.379 432.685,373.311 454.504,396.709 476.323,419.586 498.142,441.953 519.961,463.822 541.78,485.203 563.599,506.108 585.418,526.546 607.237,546.53 629.056,566.068 650.875,585.17 672.694,603.847 694.513,622.107 716.332,639.961 738.151,657.416 759.97,674.483 781.789,691.169 803.608,707.483 825.427,723.434 847.246,739.029 869.065,754.277 890.884,769.185 912.703,783.76 934.522,798.011 956.341,811.944 978.16,825.567 999.979,838.886 1021.8,851.908 1043.62,864.64 1065.44,877.088 1087.25,889.259 1109.07,901.158 1130.89,912.792 1152.71,924.167 1174.53,935.289 1196.35,946.162 1218.17,956.794 1239.99,967.188 1261.81,977.351 1283.63,987.287 1305.44,997.002 1327.26,1006.5 1349.08,1015.79 1370.9,1024.87 1392.72,1033.74 1414.54,1042.42 1436.36,1050.91 1458.18,1059.21 1480,1067.32 1501.82,1075.25 1523.63,1083 1545.45,1090.58 1567.27,1098 1589.09,1105.24 1610.91,1112.33 1632.73,1119.26 1654.55,1126.03 1676.37,1132.65 1698.19,1139.13 1720.01,1145.46 1741.82,1151.65 1763.64,1157.7 1785.46,1163.62 1807.28,1169.4 1829.1,1175.06 1850.92,1180.59 1872.74,1185.99 1894.56,1191.28 1916.38,1196.45 1938.2,1201.5 1960.01,1206.44 1981.83,1211.27 2003.65,1216 2025.47,1220.61 2047.29,1225.13 2069.11,1229.54 2090.93,1233.86 2112.75,1238.08 2134.57,1242.2 2156.39,1246.24 2178.2,1250.18 2200.02,1254.03 2221.84,1257.8 2243.66,1261.49 2265.48,1265.09 2287.3,1268.62 2309.12,1272.06 2330.94,1275.43 2352.76,1278.72 "/>
<path clip-path="url(#clip440)" d="M1790.06 352.309 L2280.03 352.309 L2280.03 93.1086 L1790.06 93.1086  Z" fill="#ffffff" fill-rule="evenodd" fill-opacity="1"/>
<polyline clip-path="url(#clip440)" style="stroke:#000000; stroke-linecap:round; stroke-linejoin:round; stroke-width:4; stroke-opacity:1; fill:none" points="1790.06,352.309 2280.03,352.309 2280.03,93.1086 1790.06,93.1086 1790.06,352.309 "/>
<polyline clip-path="url(#clip440)" style="stroke:#56b4e9; stroke-linecap:round; stroke-linejoin:round; stroke-width:4; stroke-opacity:1; fill:none" points="1814.3,144.949 1959.76,144.949 "/>
<path clip-path="url(#clip440)" d="M1995.9 139.289 Q1992.47 139.289 1990.48 141.974 Q1988.49 144.636 1988.49 149.289 Q1988.49 153.942 1990.46 156.627 Q1992.45 159.289 1995.9 159.289 Q1999.3 159.289 2001.29 156.604 Q2003.28 153.918 2003.28 149.289 Q2003.28 144.682 2001.29 141.997 Q1999.3 139.289 1995.9 139.289 M1995.9 135.678 Q2001.46 135.678 2004.63 139.289 Q2007.8 142.9 2007.8 149.289 Q2007.8 155.655 2004.63 159.289 Q2001.46 162.9 1995.9 162.9 Q1990.32 162.9 1987.15 159.289 Q1984 155.655 1984 149.289 Q1984 142.9 1987.15 139.289 Q1990.32 135.678 1995.9 135.678 Z" fill="#000000" fill-rule="nonzero" fill-opacity="1" /><path clip-path="url(#clip440)" d="M2029.88 140.284 Q2029.16 139.868 2028.31 139.682 Q2027.47 139.474 2026.46 139.474 Q2022.84 139.474 2020.9 141.835 Q2018.98 144.173 2018.98 148.571 L2018.98 162.229 L2014.7 162.229 L2014.7 136.303 L2018.98 136.303 L2018.98 140.331 Q2020.32 137.969 2022.47 136.835 Q2024.63 135.678 2027.71 135.678 Q2028.14 135.678 2028.68 135.747 Q2029.21 135.794 2029.86 135.909 L2029.88 140.284 Z" fill="#000000" fill-rule="nonzero" fill-opacity="1" /><path clip-path="url(#clip440)" d="M2034.35 136.303 L2038.61 136.303 L2038.61 162.229 L2034.35 162.229 L2034.35 136.303 M2034.35 126.21 L2038.61 126.21 L2038.61 131.604 L2034.35 131.604 L2034.35 126.21 Z" fill="#000000" fill-rule="nonzero" fill-opacity="1" /><path clip-path="url(#clip440)" d="M2064.58 148.965 Q2064.58 144.335 2062.66 141.789 Q2060.76 139.243 2057.31 139.243 Q2053.89 139.243 2051.96 141.789 Q2050.07 144.335 2050.07 148.965 Q2050.07 153.571 2051.96 156.118 Q2053.89 158.664 2057.31 158.664 Q2060.76 158.664 2062.66 156.118 Q2064.58 153.571 2064.58 148.965 M2068.84 159.011 Q2068.84 165.631 2065.9 168.849 Q2062.96 172.09 2056.89 172.09 Q2054.65 172.09 2052.66 171.742 Q2050.67 171.418 2048.79 170.724 L2048.79 166.58 Q2050.67 167.599 2052.5 168.085 Q2054.33 168.571 2056.22 168.571 Q2060.41 168.571 2062.5 166.372 Q2064.58 164.196 2064.58 159.775 L2064.58 157.668 Q2063.26 159.96 2061.2 161.094 Q2059.14 162.229 2056.27 162.229 Q2051.5 162.229 2048.58 158.594 Q2045.67 154.96 2045.67 148.965 Q2045.67 142.946 2048.58 139.312 Q2051.5 135.678 2056.27 135.678 Q2059.14 135.678 2061.2 136.812 Q2063.26 137.946 2064.58 140.238 L2064.58 136.303 L2068.84 136.303 L2068.84 159.011 Z" fill="#000000" fill-rule="nonzero" fill-opacity="1" /><path clip-path="url(#clip440)" d="M2077.61 136.303 L2081.87 136.303 L2081.87 162.229 L2077.61 162.229 L2077.61 136.303 M2077.61 126.21 L2081.87 126.21 L2081.87 131.604 L2077.61 131.604 L2077.61 126.21 Z" fill="#000000" fill-rule="nonzero" fill-opacity="1" /><path clip-path="url(#clip440)" d="M2112.33 146.581 L2112.33 162.229 L2108.08 162.229 L2108.08 146.719 Q2108.08 143.039 2106.64 141.21 Q2105.2 139.382 2102.33 139.382 Q2098.89 139.382 2096.89 141.581 Q2094.9 143.78 2094.9 147.576 L2094.9 162.229 L2090.62 162.229 L2090.62 136.303 L2094.9 136.303 L2094.9 140.331 Q2096.43 137.993 2098.49 136.835 Q2100.58 135.678 2103.28 135.678 Q2107.75 135.678 2110.04 138.456 Q2112.33 141.21 2112.33 146.581 Z" fill="#000000" fill-rule="nonzero" fill-opacity="1" /><path clip-path="url(#clip440)" d="M2132.61 149.196 Q2127.45 149.196 2125.46 150.377 Q2123.47 151.557 2123.47 154.405 Q2123.47 156.673 2124.95 158.016 Q2126.45 159.335 2129.02 159.335 Q2132.57 159.335 2134.7 156.835 Q2136.85 154.312 2136.85 150.145 L2136.85 149.196 L2132.61 149.196 M2141.11 147.437 L2141.11 162.229 L2136.85 162.229 L2136.85 158.293 Q2135.39 160.655 2133.21 161.789 Q2131.04 162.9 2127.89 162.9 Q2123.91 162.9 2121.55 160.678 Q2119.21 158.432 2119.21 154.682 Q2119.21 150.307 2122.13 148.085 Q2125.07 145.863 2130.88 145.863 L2136.85 145.863 L2136.85 145.446 Q2136.85 142.507 2134.9 140.909 Q2132.98 139.289 2129.49 139.289 Q2127.26 139.289 2125.16 139.821 Q2123.05 140.354 2121.11 141.419 L2121.11 137.483 Q2123.45 136.581 2125.64 136.141 Q2127.84 135.678 2129.93 135.678 Q2135.55 135.678 2138.33 138.594 Q2141.11 141.511 2141.11 147.437 Z" fill="#000000" fill-rule="nonzero" fill-opacity="1" /><path clip-path="url(#clip440)" d="M2149.88 126.21 L2154.14 126.21 L2154.14 162.229 L2149.88 162.229 L2149.88 126.21 Z" fill="#000000" fill-rule="nonzero" fill-opacity="1" /><polyline clip-path="url(#clip440)" style="stroke:#009e73; stroke-linecap:round; stroke-linejoin:round; stroke-width:4; stroke-opacity:1; fill:none" points="1814.3,196.789 1959.76,196.789 "/>
<path clip-path="url(#clip440)" d="M2000.51 178.05 L2000.51 181.592 L1996.43 181.592 Q1994.14 181.592 1993.24 182.518 Q1992.36 183.444 1992.36 185.851 L1992.36 188.143 L1999.37 188.143 L1999.37 191.453 L1992.36 191.453 L1992.36 214.069 L1988.08 214.069 L1988.08 191.453 L1984 191.453 L1984 188.143 L1988.08 188.143 L1988.08 186.337 Q1988.08 182.009 1990.09 180.041 Q1992.1 178.05 1996.48 178.05 L2000.51 178.05 Z" fill="#000000" fill-rule="nonzero" fill-opacity="1" /><path clip-path="url(#clip440)" d="M2004.07 188.143 L2008.33 188.143 L2008.33 214.069 L2004.07 214.069 L2004.07 188.143 M2004.07 178.05 L2008.33 178.05 L2008.33 183.444 L2004.07 183.444 L2004.07 178.05 Z" fill="#000000" fill-rule="nonzero" fill-opacity="1" /><path clip-path="url(#clip440)" d="M2021.46 180.782 L2021.46 188.143 L2030.23 188.143 L2030.23 191.453 L2021.46 191.453 L2021.46 205.527 Q2021.46 208.698 2022.31 209.601 Q2023.19 210.504 2025.85 210.504 L2030.23 210.504 L2030.23 214.069 L2025.85 214.069 Q2020.92 214.069 2019.05 212.24 Q2017.17 210.388 2017.17 205.527 L2017.17 191.453 L2014.05 191.453 L2014.05 188.143 L2017.17 188.143 L2017.17 180.782 L2021.46 180.782 Z" fill="#000000" fill-rule="nonzero" fill-opacity="1" /><path clip-path="url(#clip440)" d="M1814.3 269.365 L1959.76 269.365 L1959.76 227.893 L1814.3 227.893 L1814.3 269.365  Z" fill="#f0e442" fill-rule="evenodd" fill-opacity="1"/>
<polyline clip-path="url(#clip440)" style="stroke:#f0e442; stroke-linecap:round; stroke-linejoin:round; stroke-width:4; stroke-opacity:1; fill:none" points="1814.3,227.893 1959.76,227.893 "/>
<path clip-path="url(#clip440)" d="M2002.43 240.747 L2002.43 244.774 Q2000.62 243.849 1998.68 243.386 Q1996.73 242.923 1994.65 242.923 Q1991.48 242.923 1989.88 243.895 Q1988.31 244.867 1988.31 246.811 Q1988.31 248.293 1989.44 249.149 Q1990.58 249.983 1994 250.747 L1995.46 251.071 Q2000 252.043 2001.9 253.825 Q2003.82 255.585 2003.82 258.756 Q2003.82 262.367 2000.95 264.473 Q1998.1 266.58 1993.1 266.58 Q1991.02 266.58 1988.75 266.163 Q1986.5 265.77 1984 264.96 L1984 260.561 Q1986.36 261.788 1988.65 262.413 Q1990.95 263.015 1993.19 263.015 Q1996.2 263.015 1997.82 261.997 Q1999.44 260.955 1999.44 259.08 Q1999.44 257.344 1998.26 256.418 Q1997.1 255.492 1993.15 254.636 L1991.66 254.288 Q1987.71 253.455 1985.95 251.742 Q1984.19 250.006 1984.19 246.997 Q1984.19 243.339 1986.78 241.349 Q1989.37 239.358 1994.14 239.358 Q1996.5 239.358 1998.58 239.705 Q2000.67 240.052 2002.43 240.747 Z" fill="#000000" fill-rule="nonzero" fill-opacity="1" /><path clip-path="url(#clip440)" d="M2010.6 239.983 L2014.86 239.983 L2014.86 265.909 L2010.6 265.909 L2010.6 239.983 M2010.6 229.89 L2014.86 229.89 L2014.86 235.284 L2010.6 235.284 L2010.6 229.89 Z" fill="#000000" fill-rule="nonzero" fill-opacity="1" /><path clip-path="url(#clip440)" d="M2040.83 252.645 Q2040.83 248.015 2038.91 245.469 Q2037.01 242.923 2033.56 242.923 Q2030.14 242.923 2028.21 245.469 Q2026.32 248.015 2026.32 252.645 Q2026.32 257.251 2028.21 259.798 Q2030.14 262.344 2033.56 262.344 Q2037.01 262.344 2038.91 259.798 Q2040.83 257.251 2040.83 252.645 M2045.09 262.691 Q2045.09 269.311 2042.15 272.529 Q2039.21 275.77 2033.14 275.77 Q2030.9 275.77 2028.91 275.422 Q2026.92 275.098 2025.04 274.404 L2025.04 270.26 Q2026.92 271.279 2028.75 271.765 Q2030.58 272.251 2032.47 272.251 Q2036.66 272.251 2038.75 270.052 Q2040.83 267.876 2040.83 263.455 L2040.83 261.348 Q2039.51 263.64 2037.45 264.774 Q2035.39 265.909 2032.52 265.909 Q2027.75 265.909 2024.83 262.274 Q2021.92 258.64 2021.92 252.645 Q2021.92 246.626 2024.83 242.992 Q2027.75 239.358 2032.52 239.358 Q2035.39 239.358 2037.45 240.492 Q2039.51 241.626 2040.83 243.918 L2040.83 239.983 L2045.09 239.983 L2045.09 262.691 Z" fill="#000000" fill-rule="nonzero" fill-opacity="1" /><path clip-path="url(#clip440)" d="M2075.41 250.261 L2075.41 265.909 L2071.15 265.909 L2071.15 250.399 Q2071.15 246.719 2069.72 244.89 Q2068.28 243.062 2065.41 243.062 Q2061.96 243.062 2059.97 245.261 Q2057.98 247.46 2057.98 251.256 L2057.98 265.909 L2053.7 265.909 L2053.7 239.983 L2057.98 239.983 L2057.98 244.011 Q2059.51 241.673 2061.57 240.515 Q2063.65 239.358 2066.36 239.358 Q2070.83 239.358 2073.12 242.136 Q2075.41 244.89 2075.41 250.261 Z" fill="#000000" fill-rule="nonzero" fill-opacity="1" /><path clip-path="url(#clip440)" d="M2095.69 252.876 Q2090.53 252.876 2088.54 254.057 Q2086.55 255.237 2086.55 258.085 Q2086.55 260.353 2088.03 261.696 Q2089.53 263.015 2092.1 263.015 Q2095.64 263.015 2097.77 260.515 Q2099.93 257.992 2099.93 253.825 L2099.93 252.876 L2095.69 252.876 M2104.19 251.117 L2104.19 265.909 L2099.93 265.909 L2099.93 261.973 Q2098.47 264.335 2096.29 265.469 Q2094.12 266.58 2090.97 266.58 Q2086.99 266.58 2084.63 264.358 Q2082.29 262.112 2082.29 258.362 Q2082.29 253.987 2085.2 251.765 Q2088.14 249.543 2093.95 249.543 L2099.93 249.543 L2099.93 249.126 Q2099.93 246.187 2097.98 244.589 Q2096.06 242.969 2092.57 242.969 Q2090.34 242.969 2088.24 243.501 Q2086.13 244.034 2084.19 245.099 L2084.19 241.163 Q2086.52 240.261 2088.72 239.821 Q2090.92 239.358 2093.01 239.358 Q2098.63 239.358 2101.41 242.274 Q2104.19 245.191 2104.19 251.117 Z" fill="#000000" fill-rule="nonzero" fill-opacity="1" /><path clip-path="url(#clip440)" d="M2112.96 229.89 L2117.22 229.89 L2117.22 265.909 L2112.96 265.909 L2112.96 229.89 Z" fill="#000000" fill-rule="nonzero" fill-opacity="1" /><polyline clip-path="url(#clip440)" style="stroke:#0072b2; stroke-linecap:round; stroke-linejoin:round; stroke-width:4; stroke-opacity:1; fill:none" stroke-dasharray="16, 10" points="1814.3,300.469 1959.76,300.469 "/>
<path clip-path="url(#clip440)" d="M2002.77 304.809 Q2002.77 300.11 2000.83 297.448 Q1998.91 294.763 1995.53 294.763 Q1992.15 294.763 1990.21 297.448 Q1988.28 300.11 1988.28 304.809 Q1988.28 309.508 1990.21 312.193 Q1992.15 314.855 1995.53 314.855 Q1998.91 314.855 2000.83 312.193 Q2002.77 309.508 2002.77 304.809 M1988.28 295.758 Q1989.63 293.443 1991.66 292.332 Q1993.72 291.198 1996.57 291.198 Q2001.29 291.198 2004.23 294.948 Q2007.2 298.698 2007.2 304.809 Q2007.2 310.92 2004.23 314.67 Q2001.29 318.42 1996.57 318.42 Q1993.72 318.42 1991.66 317.309 Q1989.63 316.175 1988.28 313.86 L1988.28 317.749 L1984 317.749 L1984 281.73 L1988.28 281.73 L1988.28 295.758 Z" fill="#000000" fill-rule="nonzero" fill-opacity="1" /><path clip-path="url(#clip440)" d="M2026.04 304.716 Q2020.88 304.716 2018.89 305.897 Q2016.9 307.077 2016.9 309.925 Q2016.9 312.193 2018.38 313.536 Q2019.88 314.855 2022.45 314.855 Q2025.99 314.855 2028.12 312.355 Q2030.27 309.832 2030.27 305.665 L2030.27 304.716 L2026.04 304.716 M2034.53 302.957 L2034.53 317.749 L2030.27 317.749 L2030.27 313.813 Q2028.82 316.175 2026.64 317.309 Q2024.46 318.42 2021.32 318.42 Q2017.33 318.42 2014.97 316.198 Q2012.64 313.952 2012.64 310.202 Q2012.64 305.827 2015.55 303.605 Q2018.49 301.383 2024.3 301.383 L2030.27 301.383 L2030.27 300.966 Q2030.27 298.027 2028.33 296.429 Q2026.41 294.809 2022.91 294.809 Q2020.69 294.809 2018.58 295.341 Q2016.48 295.874 2014.53 296.939 L2014.53 293.003 Q2016.87 292.101 2019.07 291.661 Q2021.27 291.198 2023.35 291.198 Q2028.98 291.198 2031.76 294.114 Q2034.53 297.031 2034.53 302.957 Z" fill="#000000" fill-rule="nonzero" fill-opacity="1" /><path clip-path="url(#clip440)" d="M2061.96 292.818 L2061.96 296.8 Q2060.16 295.804 2058.33 295.318 Q2056.52 294.809 2054.67 294.809 Q2050.53 294.809 2048.24 297.448 Q2045.95 300.064 2045.95 304.809 Q2045.95 309.554 2048.24 312.193 Q2050.53 314.809 2054.67 314.809 Q2056.52 314.809 2058.33 314.323 Q2060.16 313.813 2061.96 312.818 L2061.96 316.753 Q2060.18 317.587 2058.26 318.003 Q2056.36 318.42 2054.21 318.42 Q2048.35 318.42 2044.9 314.739 Q2041.46 311.059 2041.46 304.809 Q2041.46 298.466 2044.93 294.832 Q2048.42 291.198 2054.49 291.198 Q2056.46 291.198 2058.33 291.615 Q2060.2 292.008 2061.96 292.818 Z" fill="#000000" fill-rule="nonzero" fill-opacity="1" /><path clip-path="url(#clip440)" d="M2069.21 281.73 L2073.49 281.73 L2073.49 303.003 L2086.2 291.823 L2091.64 291.823 L2077.89 303.952 L2092.22 317.749 L2086.66 317.749 L2073.49 305.087 L2073.49 317.749 L2069.21 317.749 L2069.21 281.73 Z" fill="#000000" fill-rule="nonzero" fill-opacity="1" /><path clip-path="url(#clip440)" d="M2113.89 304.485 Q2113.89 299.855 2111.96 297.309 Q2110.07 294.763 2106.62 294.763 Q2103.19 294.763 2101.27 297.309 Q2099.37 299.855 2099.37 304.485 Q2099.37 309.091 2101.27 311.638 Q2103.19 314.184 2106.62 314.184 Q2110.07 314.184 2111.96 311.638 Q2113.89 309.091 2113.89 304.485 M2118.14 314.531 Q2118.14 321.151 2115.2 324.369 Q2112.26 327.61 2106.2 327.61 Q2103.95 327.61 2101.96 327.262 Q2099.97 326.938 2098.1 326.244 L2098.1 322.1 Q2099.97 323.119 2101.8 323.605 Q2103.63 324.091 2105.53 324.091 Q2109.72 324.091 2111.8 321.892 Q2113.89 319.716 2113.89 315.295 L2113.89 313.188 Q2112.57 315.48 2110.51 316.614 Q2108.45 317.749 2105.58 317.749 Q2100.81 317.749 2097.89 314.114 Q2094.97 310.48 2094.97 304.485 Q2094.97 298.466 2097.89 294.832 Q2100.81 291.198 2105.58 291.198 Q2108.45 291.198 2110.51 292.332 Q2112.57 293.466 2113.89 295.758 L2113.89 291.823 L2118.14 291.823 L2118.14 314.531 Z" fill="#000000" fill-rule="nonzero" fill-opacity="1" /><path clip-path="url(#clip440)" d="M2141.94 295.804 Q2141.22 295.388 2140.37 295.202 Q2139.53 294.994 2138.51 294.994 Q2134.9 294.994 2132.96 297.355 Q2131.04 299.693 2131.04 304.091 L2131.04 317.749 L2126.76 317.749 L2126.76 291.823 L2131.04 291.823 L2131.04 295.851 Q2132.38 293.489 2134.53 292.355 Q2136.69 291.198 2139.76 291.198 Q2140.2 291.198 2140.74 291.267 Q2141.27 291.314 2141.92 291.429 L2141.94 295.804 Z" fill="#000000" fill-rule="nonzero" fill-opacity="1" /><path clip-path="url(#clip440)" d="M2155.41 294.809 Q2151.99 294.809 2150 297.494 Q2148.01 300.156 2148.01 304.809 Q2148.01 309.462 2149.97 312.147 Q2151.96 314.809 2155.41 314.809 Q2158.82 314.809 2160.81 312.124 Q2162.8 309.438 2162.8 304.809 Q2162.8 300.202 2160.81 297.517 Q2158.82 294.809 2155.41 294.809 M2155.41 291.198 Q2160.97 291.198 2164.14 294.809 Q2167.31 298.42 2167.31 304.809 Q2167.31 311.175 2164.14 314.809 Q2160.97 318.42 2155.41 318.42 Q2149.83 318.42 2146.66 314.809 Q2143.51 311.175 2143.51 304.809 Q2143.51 298.42 2146.66 294.809 Q2149.83 291.198 2155.41 291.198 Z" fill="#000000" fill-rule="nonzero" fill-opacity="1" /><path clip-path="url(#clip440)" d="M2173.93 307.517 L2173.93 291.823 L2178.19 291.823 L2178.19 307.355 Q2178.19 311.036 2179.63 312.888 Q2181.06 314.716 2183.93 314.716 Q2187.38 314.716 2189.37 312.517 Q2191.38 310.318 2191.38 306.522 L2191.38 291.823 L2195.64 291.823 L2195.64 317.749 L2191.38 317.749 L2191.38 313.767 Q2189.83 316.128 2187.77 317.286 Q2185.74 318.42 2183.03 318.42 Q2178.56 318.42 2176.25 315.642 Q2173.93 312.864 2173.93 307.517 M2184.65 291.198 L2184.65 291.198 Z" fill="#000000" fill-rule="nonzero" fill-opacity="1" /><path clip-path="url(#clip440)" d="M2225.97 302.101 L2225.97 317.749 L2221.71 317.749 L2221.71 302.239 Q2221.71 298.559 2220.27 296.73 Q2218.84 294.902 2215.97 294.902 Q2212.52 294.902 2210.53 297.101 Q2208.54 299.3 2208.54 303.096 L2208.54 317.749 L2204.26 317.749 L2204.26 291.823 L2208.54 291.823 L2208.54 295.851 Q2210.07 293.513 2212.13 292.355 Q2214.21 291.198 2216.92 291.198 Q2221.38 291.198 2223.68 293.976 Q2225.97 296.73 2225.97 302.101 Z" fill="#000000" fill-rule="nonzero" fill-opacity="1" /><path clip-path="url(#clip440)" d="M2251.52 295.758 L2251.52 281.73 L2255.78 281.73 L2255.78 317.749 L2251.52 317.749 L2251.52 313.86 Q2250.18 316.175 2248.12 317.309 Q2246.08 318.42 2243.21 318.42 Q2238.51 318.42 2235.55 314.67 Q2232.61 310.92 2232.61 304.809 Q2232.61 298.698 2235.55 294.948 Q2238.51 291.198 2243.21 291.198 Q2246.08 291.198 2248.12 292.332 Q2250.18 293.443 2251.52 295.758 M2237.01 304.809 Q2237.01 309.508 2238.93 312.193 Q2240.88 314.855 2244.25 314.855 Q2247.63 314.855 2249.58 312.193 Q2251.52 309.508 2251.52 304.809 Q2251.52 300.11 2249.58 297.448 Q2247.63 294.763 2244.25 294.763 Q2240.88 294.763 2238.93 297.448 Q2237.01 300.11 2237.01 304.809 Z" fill="#000000" fill-rule="nonzero" fill-opacity="1" /></svg>
