<?xml version="1.0" encoding="utf-8"?>
<svg xmlns="http://www.w3.org/2000/svg" xmlns:xlink="http://www.w3.org/1999/xlink" width="600" height="400" viewBox="0 0 2400 1600">
<defs>
  <clipPath id="clip270">
    <rect x="0" y="0" width="2400" height="1600"/>
  </clipPath>
</defs>
<path clip-path="url(#clip270)" d="M0 1600 L2400 1600 L2400 0 L0 0  Z" fill="#ffffff" fill-rule="evenodd" fill-opacity="1"/>
<defs>
  <clipPath id="clip271">
    <rect x="480" y="0" width="1681" height="1600"/>
  </clipPath>
</defs>
<path clip-path="url(#clip270)" d="M156.598 1423.18 L2352.76 1423.18 L2352.76 47.2441 L156.598 47.2441  Z" fill="#ffffff" fill-rule="evenodd" fill-opacity="1"/>
<defs>
  <clipPath id="clip272">
    <rect x="156" y="47" width="2197" height="1377"/>
  </clipPath>
</defs>
<polyline clip-path="url(#clip270)" style="stroke:#000000; stroke-linecap:round; stroke-linejoin:round; stroke-width:4; stroke-opacity:1; fill:none" points="156.598,1423.18 2352.76,1423.18 "/>
<polyline clip-path="url(#clip270)" style="stroke:#000000; stroke-linecap:round; stroke-linejoin:round; stroke-width:4; stroke-opacity:1; fill:none" points="156.598,47.2441 2352.76,47.2441 "/>
<polyline clip-path="url(#clip270)" style="stroke:#000000; stroke-linecap:round; stroke-linejoin:round; stroke-width:4; stroke-opacity:1; fill:none" points="456.074,1423.18 456.074,1404.28 "/>
<polyline clip-path="url(#clip270)" style="stroke:#000000; stroke-linecap:round; stroke-linejoin:round; stroke-width:4; stroke-opacity:1; fill:none" points="955.201,1423.18 955.201,1404.28 "/>
<polyline clip-path="url(#clip270)" style="stroke:#000000; stroke-linecap:round; stroke-linejoin:round; stroke-width:4; stroke-opacity:1; fill:none" points="1454.33,1423.18 1454.33,1404.28 "/>
<polyline clip-path="url(#clip270)" style="stroke:#000000; stroke-linecap:round; stroke-linejoin:round; stroke-width:4; stroke-opacity:1; fill:none" points="1953.45,1423.18 1953.45,1404.28 "/>
<polyline clip-path="url(#clip270)" style="stroke:#000000; stroke-linecap:round; stroke-linejoin:round; stroke-width:4; stroke-opacity:1; fill:none" points="156.598,1423.18 156.598,1413.73 "/>
<polyline clip-path="url(#clip270)" style="stroke:#000000; stroke-linecap:round; stroke-linejoin:round; stroke-width:4; stroke-opacity:1; fill:none" points="256.424,1423.18 256.424,1413.73 "/>
<polyline clip-path="url(#clip270)" style="stroke:#000000; stroke-linecap:round; stroke-linejoin:round; stroke-width:4; stroke-opacity:1; fill:none" points="356.249,1423.18 356.249,1413.73 "/>
<polyline clip-path="url(#clip270)" style="stroke:#000000; stroke-linecap:round; stroke-linejoin:round; stroke-width:4; stroke-opacity:1; fill:none" points="555.9,1423.18 555.9,1413.73 "/>
<polyline clip-path="url(#clip270)" style="stroke:#000000; stroke-linecap:round; stroke-linejoin:round; stroke-width:4; stroke-opacity:1; fill:none" points="655.725,1423.18 655.725,1413.73 "/>
<polyline clip-path="url(#clip270)" style="stroke:#000000; stroke-linecap:round; stroke-linejoin:round; stroke-width:4; stroke-opacity:1; fill:none" points="755.55,1423.18 755.55,1413.73 "/>
<polyline clip-path="url(#clip270)" style="stroke:#000000; stroke-linecap:round; stroke-linejoin:round; stroke-width:4; stroke-opacity:1; fill:none" points="855.376,1423.18 855.376,1413.73 "/>
<polyline clip-path="url(#clip270)" style="stroke:#000000; stroke-linecap:round; stroke-linejoin:round; stroke-width:4; stroke-opacity:1; fill:none" points="1055.03,1423.18 1055.03,1413.73 "/>
<polyline clip-path="url(#clip270)" style="stroke:#000000; stroke-linecap:round; stroke-linejoin:round; stroke-width:4; stroke-opacity:1; fill:none" points="1154.85,1423.18 1154.85,1413.73 "/>
<polyline clip-path="url(#clip270)" style="stroke:#000000; stroke-linecap:round; stroke-linejoin:round; stroke-width:4; stroke-opacity:1; fill:none" points="1254.68,1423.18 1254.68,1413.73 "/>
<polyline clip-path="url(#clip270)" style="stroke:#000000; stroke-linecap:round; stroke-linejoin:round; stroke-width:4; stroke-opacity:1; fill:none" points="1354.5,1423.18 1354.5,1413.73 "/>
<polyline clip-path="url(#clip270)" style="stroke:#000000; stroke-linecap:round; stroke-linejoin:round; stroke-width:4; stroke-opacity:1; fill:none" points="1554.15,1423.18 1554.15,1413.73 "/>
<polyline clip-path="url(#clip270)" style="stroke:#000000; stroke-linecap:round; stroke-linejoin:round; stroke-width:4; stroke-opacity:1; fill:none" points="1653.98,1423.18 1653.98,1413.73 "/>
<polyline clip-path="url(#clip270)" style="stroke:#000000; stroke-linecap:round; stroke-linejoin:round; stroke-width:4; stroke-opacity:1; fill:none" points="1753.8,1423.18 1753.8,1413.73 "/>
<polyline clip-path="url(#clip270)" style="stroke:#000000; stroke-linecap:round; stroke-linejoin:round; stroke-width:4; stroke-opacity:1; fill:none" points="1853.63,1423.18 1853.63,1413.73 "/>
<polyline clip-path="url(#clip270)" style="stroke:#000000; stroke-linecap:round; stroke-linejoin:round; stroke-width:4; stroke-opacity:1; fill:none" points="2053.28,1423.18 2053.28,1413.73 "/>
<polyline clip-path="url(#clip270)" style="stroke:#000000; stroke-linecap:round; stroke-linejoin:round; stroke-width:4; stroke-opacity:1; fill:none" points="2153.11,1423.18 2153.11,1413.73 "/>
<polyline clip-path="url(#clip270)" style="stroke:#000000; stroke-linecap:round; stroke-linejoin:round; stroke-width:4; stroke-opacity:1; fill:none" points="2252.93,1423.18 2252.93,1413.73 "/>
<polyline clip-path="url(#clip270)" style="stroke:#000000; stroke-linecap:round; stroke-linejoin:round; stroke-width:4; stroke-opacity:1; fill:none" points="2352.76,1423.18 2352.76,1413.73 "/>
<path clip-path="url(#clip270)" d="M403.1 1468.75 L432.776 1468.75 L432.776 1472.69 L403.1 1472.69 L403.1 1468.75 Z" fill="#000000" fill-rule="nonzero" fill-opacity="1" /><path clip-path="url(#clip270)" d="M446.896 1481.64 L463.215 1481.64 L463.215 1485.58 L441.271 1485.58 L441.271 1481.64 Q443.933 1478.89 448.516 1474.26 Q453.123 1469.61 454.303 1468.27 Q456.549 1465.74 457.428 1464.01 Q458.331 1462.25 458.331 1460.56 Q458.331 1457.8 456.387 1456.07 Q454.465 1454.33 451.364 1454.33 Q449.165 1454.33 446.711 1455.09 Q444.28 1455.86 441.503 1457.41 L441.503 1452.69 Q444.327 1451.55 446.78 1450.97 Q449.234 1450.39 451.271 1450.39 Q456.641 1450.39 459.836 1453.08 Q463.03 1455.77 463.03 1460.26 Q463.03 1462.39 462.22 1464.31 Q461.433 1466.2 459.327 1468.8 Q458.748 1469.47 455.646 1472.69 Q452.544 1475.88 446.896 1481.64 Z" fill="#000000" fill-rule="nonzero" fill-opacity="1" /><path clip-path="url(#clip270)" d="M473.03 1479.7 L477.914 1479.7 L477.914 1485.58 L473.03 1485.58 L473.03 1479.7 Z" fill="#000000" fill-rule="nonzero" fill-opacity="1" /><path clip-path="url(#clip270)" d="M488.146 1451.02 L506.502 1451.02 L506.502 1454.96 L492.428 1454.96 L492.428 1463.43 Q493.447 1463.08 494.465 1462.92 Q495.484 1462.73 496.502 1462.73 Q502.289 1462.73 505.669 1465.9 Q509.049 1469.08 509.049 1474.49 Q509.049 1480.07 505.576 1483.17 Q502.104 1486.25 495.785 1486.25 Q493.609 1486.25 491.34 1485.88 Q489.095 1485.51 486.688 1484.77 L486.688 1480.07 Q488.771 1481.2 490.993 1481.76 Q493.215 1482.32 495.692 1482.32 Q499.697 1482.32 502.035 1480.21 Q504.373 1478.1 504.373 1474.49 Q504.373 1470.88 502.035 1468.77 Q499.697 1466.67 495.692 1466.67 Q493.817 1466.67 491.942 1467.08 Q490.09 1467.5 488.146 1468.38 L488.146 1451.02 Z" fill="#000000" fill-rule="nonzero" fill-opacity="1" /><path clip-path="url(#clip270)" d="M932.585 1454.1 Q928.974 1454.1 927.146 1457.66 Q925.34 1461.2 925.34 1468.33 Q925.34 1475.44 927.146 1479.01 Q928.974 1482.55 932.585 1482.55 Q936.22 1482.55 938.025 1479.01 Q939.854 1475.44 939.854 1468.33 Q939.854 1461.2 938.025 1457.66 Q936.22 1454.1 932.585 1454.1 M932.585 1450.39 Q938.396 1450.39 941.451 1455 Q944.53 1459.58 944.53 1468.33 Q944.53 1477.06 941.451 1481.67 Q938.396 1486.25 932.585 1486.25 Q926.775 1486.25 923.697 1481.67 Q920.641 1477.06 920.641 1468.33 Q920.641 1459.58 923.697 1455 Q926.775 1450.39 932.585 1450.39 Z" fill="#000000" fill-rule="nonzero" fill-opacity="1" /><path clip-path="url(#clip270)" d="M952.747 1479.7 L957.632 1479.7 L957.632 1485.58 L952.747 1485.58 L952.747 1479.7 Z" fill="#000000" fill-rule="nonzero" fill-opacity="1" /><path clip-path="url(#clip270)" d="M977.817 1454.1 Q974.206 1454.1 972.377 1457.66 Q970.571 1461.2 970.571 1468.33 Q970.571 1475.44 972.377 1479.01 Q974.206 1482.55 977.817 1482.55 Q981.451 1482.55 983.256 1479.01 Q985.085 1475.44 985.085 1468.33 Q985.085 1461.2 983.256 1457.66 Q981.451 1454.1 977.817 1454.1 M977.817 1450.39 Q983.627 1450.39 986.682 1455 Q989.761 1459.58 989.761 1468.33 Q989.761 1477.06 986.682 1481.67 Q983.627 1486.25 977.817 1486.25 Q972.006 1486.25 968.928 1481.67 Q965.872 1477.06 965.872 1468.33 Q965.872 1459.58 968.928 1455 Q972.006 1450.39 977.817 1450.39 Z" fill="#000000" fill-rule="nonzero" fill-opacity="1" /><path clip-path="url(#clip270)" d="M1426.06 1481.64 L1442.38 1481.64 L1442.38 1485.58 L1420.44 1485.58 L1420.44 1481.64 Q1423.1 1478.89 1427.68 1474.26 Q1432.29 1469.61 1433.47 1468.27 Q1435.72 1465.74 1436.6 1464.01 Q1437.5 1462.25 1437.5 1460.56 Q1437.5 1457.8 1435.55 1456.07 Q1433.63 1454.33 1430.53 1454.33 Q1428.33 1454.33 1425.88 1455.09 Q1423.45 1455.86 1420.67 1457.41 L1420.67 1452.69 Q1423.49 1451.55 1425.95 1450.97 Q1428.4 1450.39 1430.44 1450.39 Q1435.81 1450.39 1439 1453.08 Q1442.2 1455.77 1442.2 1460.26 Q1442.2 1462.39 1441.39 1464.31 Q1440.6 1466.2 1438.49 1468.8 Q1437.92 1469.47 1434.81 1472.69 Q1431.71 1475.88 1426.06 1481.64 Z" fill="#000000" fill-rule="nonzero" fill-opacity="1" /><path clip-path="url(#clip270)" d="M1452.2 1479.7 L1457.08 1479.7 L1457.08 1485.58 L1452.2 1485.58 L1452.2 1479.7 Z" fill="#000000" fill-rule="nonzero" fill-opacity="1" /><path clip-path="url(#clip270)" d="M1467.31 1451.02 L1485.67 1451.02 L1485.67 1454.96 L1471.6 1454.96 L1471.6 1463.43 Q1472.61 1463.08 1473.63 1462.92 Q1474.65 1462.73 1475.67 1462.73 Q1481.46 1462.73 1484.84 1465.9 Q1488.22 1469.08 1488.22 1474.49 Q1488.22 1480.07 1484.74 1483.17 Q1481.27 1486.25 1474.95 1486.25 Q1472.78 1486.25 1470.51 1485.88 Q1468.26 1485.51 1465.86 1484.77 L1465.86 1480.07 Q1467.94 1481.2 1470.16 1481.76 Q1472.38 1482.32 1474.86 1482.32 Q1478.86 1482.32 1481.2 1480.21 Q1483.54 1478.1 1483.54 1474.49 Q1483.54 1470.88 1481.2 1468.77 Q1478.86 1466.67 1474.86 1466.67 Q1472.99 1466.67 1471.11 1467.08 Q1469.26 1467.5 1467.31 1468.38 L1467.31 1451.02 Z" fill="#000000" fill-rule="nonzero" fill-opacity="1" /><path clip-path="url(#clip270)" d="M1920.62 1451.02 L1938.98 1451.02 L1938.98 1454.96 L1924.9 1454.96 L1924.9 1463.43 Q1925.92 1463.08 1926.94 1462.92 Q1927.96 1462.73 1928.98 1462.73 Q1934.76 1462.73 1938.14 1465.9 Q1941.52 1469.08 1941.52 1474.49 Q1941.52 1480.07 1938.05 1483.17 Q1934.58 1486.25 1928.26 1486.25 Q1926.08 1486.25 1923.81 1485.88 Q1921.57 1485.51 1919.16 1484.77 L1919.16 1480.07 Q1921.24 1481.2 1923.47 1481.76 Q1925.69 1482.32 1928.17 1482.32 Q1932.17 1482.32 1934.51 1480.21 Q1936.85 1478.1 1936.85 1474.49 Q1936.85 1470.88 1934.51 1468.77 Q1932.17 1466.67 1928.17 1466.67 Q1926.29 1466.67 1924.42 1467.08 Q1922.56 1467.5 1920.62 1468.38 L1920.62 1451.02 Z" fill="#000000" fill-rule="nonzero" fill-opacity="1" /><path clip-path="url(#clip270)" d="M1950.73 1479.7 L1955.62 1479.7 L1955.62 1485.58 L1950.73 1485.58 L1950.73 1479.7 Z" fill="#000000" fill-rule="nonzero" fill-opacity="1" /><path clip-path="url(#clip270)" d="M1975.8 1454.1 Q1972.19 1454.1 1970.36 1457.66 Q1968.56 1461.2 1968.56 1468.33 Q1968.56 1475.44 1970.36 1479.01 Q1972.19 1482.55 1975.8 1482.55 Q1979.44 1482.55 1981.24 1479.01 Q1983.07 1475.44 1983.07 1468.33 Q1983.07 1461.2 1981.24 1457.66 Q1979.44 1454.1 1975.8 1454.1 M1975.8 1450.39 Q1981.61 1450.39 1984.67 1455 Q1987.75 1459.58 1987.75 1468.33 Q1987.75 1477.06 1984.67 1481.67 Q1981.61 1486.25 1975.8 1486.25 Q1969.99 1486.25 1966.92 1481.67 Q1963.86 1477.06 1963.86 1468.33 Q1963.86 1459.58 1966.92 1455 Q1969.99 1450.39 1975.8 1450.39 Z" fill="#000000" fill-rule="nonzero" fill-opacity="1" /><path clip-path="url(#clip270)" d="M2242.28 1532.4 L2229.39 1549.74 L2242.95 1568.04 L2236.04 1568.04 L2225.67 1554.04 L2215.29 1568.04 L2208.38 1568.04 L2222.23 1549.39 L2209.56 1532.4 L2216.47 1532.4 L2225.92 1545.1 L2235.37 1532.4 L2242.28 1532.4 Z" fill="#000000" fill-rule="nonzero" fill-opacity="1" /><polyline clip-path="url(#clip270)" style="stroke:#000000; stroke-linecap:round; stroke-linejoin:round; stroke-width:4; stroke-opacity:1; fill:none" points="156.598,1423.18 156.598,47.2441 "/>
<polyline clip-path="url(#clip270)" style="stroke:#000000; stroke-linecap:round; stroke-linejoin:round; stroke-width:4; stroke-opacity:1; fill:none" points="2352.76,1423.18 2352.76,47.2441 "/>
<polyline clip-path="url(#clip270)" style="stroke:#000000; stroke-linecap:round; stroke-linejoin:round; stroke-width:4; stroke-opacity:1; fill:none" points="156.598,1423.18 175.496,1423.18 "/>
<polyline clip-path="url(#clip270)" style="stroke:#000000; stroke-linecap:round; stroke-linejoin:round; stroke-width:4; stroke-opacity:1; fill:none" points="156.598,1112.47 175.496,1112.47 "/>
<polyline clip-path="url(#clip270)" style="stroke:#000000; stroke-linecap:round; stroke-linejoin:round; stroke-width:4; stroke-opacity:1; fill:none" points="156.598,801.754 175.496,801.754 "/>
<polyline clip-path="url(#clip270)" style="stroke:#000000; stroke-linecap:round; stroke-linejoin:round; stroke-width:4; stroke-opacity:1; fill:none" points="156.598,491.041 175.496,491.041 "/>
<polyline clip-path="url(#clip270)" style="stroke:#000000; stroke-linecap:round; stroke-linejoin:round; stroke-width:4; stroke-opacity:1; fill:none" points="156.598,180.328 175.496,180.328 "/>
<polyline clip-path="url(#clip270)" style="stroke:#000000; stroke-linecap:round; stroke-linejoin:round; stroke-width:4; stroke-opacity:1; fill:none" points="156.598,1361.04 166.047,1361.04 "/>
<polyline clip-path="url(#clip270)" style="stroke:#000000; stroke-linecap:round; stroke-linejoin:round; stroke-width:4; stroke-opacity:1; fill:none" points="156.598,1298.89 166.047,1298.89 "/>
<polyline clip-path="url(#clip270)" style="stroke:#000000; stroke-linecap:round; stroke-linejoin:round; stroke-width:4; stroke-opacity:1; fill:none" points="156.598,1236.75 166.047,1236.75 "/>
<polyline clip-path="url(#clip270)" style="stroke:#000000; stroke-linecap:round; stroke-linejoin:round; stroke-width:4; stroke-opacity:1; fill:none" points="156.598,1174.61 166.047,1174.61 "/>
<polyline clip-path="url(#clip270)" style="stroke:#000000; stroke-linecap:round; stroke-linejoin:round; stroke-width:4; stroke-opacity:1; fill:none" points="156.598,1050.32 166.047,1050.32 "/>
<polyline clip-path="url(#clip270)" style="stroke:#000000; stroke-linecap:round; stroke-linejoin:round; stroke-width:4; stroke-opacity:1; fill:none" points="156.598,988.182 166.047,988.182 "/>
<polyline clip-path="url(#clip270)" style="stroke:#000000; stroke-linecap:round; stroke-linejoin:round; stroke-width:4; stroke-opacity:1; fill:none" points="156.598,926.039 166.047,926.039 "/>
<polyline clip-path="url(#clip270)" style="stroke:#000000; stroke-linecap:round; stroke-linejoin:round; stroke-width:4; stroke-opacity:1; fill:none" points="156.598,863.896 166.047,863.896 "/>
<polyline clip-path="url(#clip270)" style="stroke:#000000; stroke-linecap:round; stroke-linejoin:round; stroke-width:4; stroke-opacity:1; fill:none" points="156.598,739.611 166.047,739.611 "/>
<polyline clip-path="url(#clip270)" style="stroke:#000000; stroke-linecap:round; stroke-linejoin:round; stroke-width:4; stroke-opacity:1; fill:none" points="156.598,677.468 166.047,677.468 "/>
<polyline clip-path="url(#clip270)" style="stroke:#000000; stroke-linecap:round; stroke-linejoin:round; stroke-width:4; stroke-opacity:1; fill:none" points="156.598,615.326 166.047,615.326 "/>
<polyline clip-path="url(#clip270)" style="stroke:#000000; stroke-linecap:round; stroke-linejoin:round; stroke-width:4; stroke-opacity:1; fill:none" points="156.598,553.183 166.047,553.183 "/>
<polyline clip-path="url(#clip270)" style="stroke:#000000; stroke-linecap:round; stroke-linejoin:round; stroke-width:4; stroke-opacity:1; fill:none" points="156.598,428.898 166.047,428.898 "/>
<polyline clip-path="url(#clip270)" style="stroke:#000000; stroke-linecap:round; stroke-linejoin:round; stroke-width:4; stroke-opacity:1; fill:none" points="156.598,366.755 166.047,366.755 "/>
<polyline clip-path="url(#clip270)" style="stroke:#000000; stroke-linecap:round; stroke-linejoin:round; stroke-width:4; stroke-opacity:1; fill:none" points="156.598,304.613 166.047,304.613 "/>
<polyline clip-path="url(#clip270)" style="stroke:#000000; stroke-linecap:round; stroke-linejoin:round; stroke-width:4; stroke-opacity:1; fill:none" points="156.598,242.47 166.047,242.47 "/>
<polyline clip-path="url(#clip270)" style="stroke:#000000; stroke-linecap:round; stroke-linejoin:round; stroke-width:4; stroke-opacity:1; fill:none" points="156.598,118.185 166.047,118.185 "/>
<polyline clip-path="url(#clip270)" style="stroke:#000000; stroke-linecap:round; stroke-linejoin:round; stroke-width:4; stroke-opacity:1; fill:none" points="156.598,56.0423 166.047,56.0423 "/>
<path clip-path="url(#clip270)" d="M63.4226 1408.98 Q59.8115 1408.98 57.9828 1412.54 Q56.1773 1416.08 56.1773 1423.21 Q56.1773 1430.32 57.9828 1433.89 Q59.8115 1437.43 63.4226 1437.43 Q67.0569 1437.43 68.8624 1433.89 Q70.6911 1430.32 70.6911 1423.21 Q70.6911 1416.08 68.8624 1412.54 Q67.0569 1408.98 63.4226 1408.98 M63.4226 1405.27 Q69.2328 1405.27 72.2883 1409.88 Q75.367 1414.46 75.367 1423.21 Q75.367 1431.94 72.2883 1436.55 Q69.2328 1441.13 63.4226 1441.13 Q57.6125 1441.13 54.5338 1436.55 Q51.4782 1431.94 51.4782 1423.21 Q51.4782 1414.46 54.5338 1409.88 Q57.6125 1405.27 63.4226 1405.27 Z" fill="#000000" fill-rule="nonzero" fill-opacity="1" /><path clip-path="url(#clip270)" d="M83.5845 1434.58 L88.4688 1434.58 L88.4688 1440.46 L83.5845 1440.46 L83.5845 1434.58 Z" fill="#000000" fill-rule="nonzero" fill-opacity="1" /><path clip-path="url(#clip270)" d="M108.654 1408.98 Q105.043 1408.98 103.214 1412.54 Q101.409 1416.08 101.409 1423.21 Q101.409 1430.32 103.214 1433.89 Q105.043 1437.43 108.654 1437.43 Q112.288 1437.43 114.094 1433.89 Q115.922 1430.32 115.922 1423.21 Q115.922 1416.08 114.094 1412.54 Q112.288 1408.98 108.654 1408.98 M108.654 1405.27 Q114.464 1405.27 117.52 1409.88 Q120.598 1414.46 120.598 1423.21 Q120.598 1431.94 117.52 1436.55 Q114.464 1441.13 108.654 1441.13 Q102.844 1441.13 99.765 1436.55 Q96.7095 1431.94 96.7095 1423.21 Q96.7095 1414.46 99.765 1409.88 Q102.844 1405.27 108.654 1405.27 Z" fill="#000000" fill-rule="nonzero" fill-opacity="1" /><path clip-path="url(#clip270)" d="M64.6495 1098.27 Q61.0384 1098.27 59.2097 1101.83 Q57.4041 1105.37 57.4041 1112.5 Q57.4041 1119.61 59.2097 1123.17 Q61.0384 1126.71 64.6495 1126.71 Q68.2837 1126.71 70.0892 1123.17 Q71.9179 1119.61 71.9179 1112.5 Q71.9179 1105.37 70.0892 1101.83 Q68.2837 1098.27 64.6495 1098.27 M64.6495 1094.56 Q70.4596 1094.56 73.5152 1099.17 Q76.5938 1103.75 76.5938 1112.5 Q76.5938 1121.23 73.5152 1125.83 Q70.4596 1130.42 64.6495 1130.42 Q58.8393 1130.42 55.7606 1125.83 Q52.7051 1121.23 52.7051 1112.5 Q52.7051 1103.75 55.7606 1099.17 Q58.8393 1094.56 64.6495 1094.56 Z" fill="#000000" fill-rule="nonzero" fill-opacity="1" /><path clip-path="url(#clip270)" d="M84.8114 1123.87 L89.6956 1123.87 L89.6956 1129.75 L84.8114 1129.75 L84.8114 1123.87 Z" fill="#000000" fill-rule="nonzero" fill-opacity="1" /><path clip-path="url(#clip270)" d="M100.691 1125.81 L108.33 1125.81 L108.33 1099.45 L100.02 1101.11 L100.02 1096.85 L108.283 1095.19 L112.959 1095.19 L112.959 1125.81 L120.598 1125.81 L120.598 1129.75 L100.691 1129.75 L100.691 1125.81 Z" fill="#000000" fill-rule="nonzero" fill-opacity="1" /><path clip-path="url(#clip270)" d="M65.0198 787.552 Q61.4087 787.552 59.58 791.117 Q57.7745 794.659 57.7745 801.788 Q57.7745 808.895 59.58 812.46 Q61.4087 816.001 65.0198 816.001 Q68.6541 816.001 70.4596 812.46 Q72.2883 808.895 72.2883 801.788 Q72.2883 794.659 70.4596 791.117 Q68.6541 787.552 65.0198 787.552 M65.0198 783.849 Q70.83 783.849 73.8855 788.455 Q76.9642 793.038 76.9642 801.788 Q76.9642 810.515 73.8855 815.122 Q70.83 819.705 65.0198 819.705 Q59.2097 819.705 56.131 815.122 Q53.0754 810.515 53.0754 801.788 Q53.0754 793.038 56.131 788.455 Q59.2097 783.849 65.0198 783.849 Z" fill="#000000" fill-rule="nonzero" fill-opacity="1" /><path clip-path="url(#clip270)" d="M85.1818 813.154 L90.066 813.154 L90.066 819.034 L85.1818 819.034 L85.1818 813.154 Z" fill="#000000" fill-rule="nonzero" fill-opacity="1" /><path clip-path="url(#clip270)" d="M104.279 815.099 L120.598 815.099 L120.598 819.034 L98.6539 819.034 L98.6539 815.099 Q101.316 812.344 105.899 807.714 Q110.506 803.062 111.686 801.719 Q113.932 799.196 114.811 797.46 Q115.714 795.7 115.714 794.011 Q115.714 791.256 113.77 789.52 Q111.848 787.784 108.746 787.784 Q106.547 787.784 104.094 788.548 Q101.663 789.312 98.8854 790.863 L98.8854 786.14 Q101.709 785.006 104.163 784.427 Q106.617 783.849 108.654 783.849 Q114.024 783.849 117.219 786.534 Q120.413 789.219 120.413 793.71 Q120.413 795.839 119.603 797.761 Q118.816 799.659 116.709 802.251 Q116.131 802.923 113.029 806.14 Q109.927 809.335 104.279 815.099 Z" fill="#000000" fill-rule="nonzero" fill-opacity="1" /><path clip-path="url(#clip270)" d="M64.0708 476.839 Q60.4597 476.839 58.631 480.404 Q56.8254 483.946 56.8254 491.075 Q56.8254 498.182 58.631 501.747 Q60.4597 505.288 64.0708 505.288 Q67.705 505.288 69.5105 501.747 Q71.3392 498.182 71.3392 491.075 Q71.3392 483.946 69.5105 480.404 Q67.705 476.839 64.0708 476.839 M64.0708 473.136 Q69.8809 473.136 72.9365 477.742 Q76.0151 482.325 76.0151 491.075 Q76.0151 499.802 72.9365 504.409 Q69.8809 508.992 64.0708 508.992 Q58.2606 508.992 55.1819 504.409 Q52.1264 499.802 52.1264 491.075 Q52.1264 482.325 55.1819 477.742 Q58.2606 473.136 64.0708 473.136 Z" fill="#000000" fill-rule="nonzero" fill-opacity="1" /><path clip-path="url(#clip270)" d="M84.2327 502.441 L89.1169 502.441 L89.1169 508.321 L84.2327 508.321 L84.2327 502.441 Z" fill="#000000" fill-rule="nonzero" fill-opacity="1" /><path clip-path="url(#clip270)" d="M113.469 489.686 Q116.825 490.404 118.7 492.673 Q120.598 494.941 120.598 498.274 Q120.598 503.39 117.08 506.191 Q113.561 508.992 107.08 508.992 Q104.904 508.992 102.589 508.552 Q100.297 508.135 97.8437 507.279 L97.8437 502.765 Q99.7882 503.899 102.103 504.478 Q104.418 505.057 106.941 505.057 Q111.339 505.057 113.631 503.321 Q115.945 501.585 115.945 498.274 Q115.945 495.219 113.793 493.506 Q111.663 491.77 107.844 491.77 L103.816 491.77 L103.816 487.927 L108.029 487.927 Q111.478 487.927 113.307 486.561 Q115.135 485.173 115.135 482.58 Q115.135 479.918 113.237 478.506 Q111.362 477.071 107.844 477.071 Q105.922 477.071 103.723 477.487 Q101.524 477.904 98.8854 478.784 L98.8854 474.617 Q101.547 473.876 103.862 473.506 Q106.2 473.136 108.26 473.136 Q113.584 473.136 116.686 475.566 Q119.788 477.974 119.788 482.094 Q119.788 484.964 118.145 486.955 Q116.501 488.923 113.469 489.686 Z" fill="#000000" fill-rule="nonzero" fill-opacity="1" /><path clip-path="url(#clip270)" d="M62.9365 166.126 Q59.3254 166.126 57.4967 169.691 Q55.6912 173.233 55.6912 180.362 Q55.6912 187.469 57.4967 191.034 Q59.3254 194.575 62.9365 194.575 Q66.5707 194.575 68.3763 191.034 Q70.205 187.469 70.205 180.362 Q70.205 173.233 68.3763 169.691 Q66.5707 166.126 62.9365 166.126 M62.9365 162.423 Q68.7467 162.423 71.8022 167.029 Q74.8809 171.612 74.8809 180.362 Q74.8809 189.089 71.8022 193.696 Q68.7467 198.279 62.9365 198.279 Q57.1264 198.279 54.0477 193.696 Q50.9921 189.089 50.9921 180.362 Q50.9921 171.612 54.0477 167.029 Q57.1264 162.423 62.9365 162.423 Z" fill="#000000" fill-rule="nonzero" fill-opacity="1" /><path clip-path="url(#clip270)" d="M83.0984 191.728 L87.9827 191.728 L87.9827 197.608 L83.0984 197.608 L83.0984 191.728 Z" fill="#000000" fill-rule="nonzero" fill-opacity="1" /><path clip-path="url(#clip270)" d="M111.015 167.122 L99.2095 185.571 L111.015 185.571 L111.015 167.122 M109.788 163.048 L115.668 163.048 L115.668 185.571 L120.598 185.571 L120.598 189.459 L115.668 189.459 L115.668 197.608 L111.015 197.608 L111.015 189.459 L95.4132 189.459 L95.4132 184.946 L109.788 163.048 Z" fill="#000000" fill-rule="nonzero" fill-opacity="1" /><path clip-path="url(#clip272)" d="M156.598 1423.18 L178.56 1423.18 L200.521 1423.18 L222.483 1423.18 L244.445 1423.18 L266.406 1423.18 L288.368 1423.17 L310.329 1423.17 L332.291 1423.16 L354.252 1423.14 L376.214 1423.11 L398.176 1423.06 L420.137 1422.98 L442.099 1422.84 L464.06 1422.63 L486.022 1422.29 L507.983 1421.77 L529.945 1420.98 L551.907 1419.8 L573.868 1418.05 L595.83 1415.52 L617.791 1411.9 L639.753 1406.83 L661.714 1399.83 L683.676 1390.32 L705.638 1377.62 L727.599 1360.97 L749.561 1339.47 L771.522 1312.23 L793.484 1278.29 L815.446 1236.78 L837.407 1186.94 L859.369 1128.21 L881.33 1060.33 L903.292 983.455 L925.253 898.194 L947.215 805.695 L969.177 707.666 L991.138 606.369 L1013.1 504.556 L1035.06 405.371 L1057.02 312.197 L1078.98 228.475 L1100.95 157.492 L1122.91 102.174 L1144.87 64.8813 L1166.83 47.2441 L1188.79 50.0441 L1210.75 73.1567 L1232.72 115.561 L1254.68 175.412 L1276.64 250.178 L1298.6 336.814 L1320.56 431.97 L1342.52 532.2 L1364.48 634.17 L1386.45 734.83 L1408.41 831.552 L1430.37 922.224 L1452.33 1005.29 L1474.29 1079.75 L1496.25 1145.13 L1518.22 1201.4 L1540.18 1248.9 L1562.14 1288.26 L1584.1 1320.28 L1606.06 1345.87 L1628.02 1365.95 L1649.99 1381.45 L1671.95 1393.2 L1693.91 1401.96 L1715.87 1408.38 L1737.83 1413.01 L1759.79 1416.3 L1781.75 1418.59 L1803.72 1420.17 L1825.68 1421.23 L1847.64 1421.94 L1869.6 1422.4 L1891.56 1422.7 L1913.52 1422.89 L1935.49 1423 L1957.45 1423.08 L1979.41 1423.12 L2001.37 1423.14 L2023.33 1423.16 L2045.29 1423.17 L2067.26 1423.17 L2089.22 1423.18 L2111.18 1423.18 L2133.14 1423.18 L2155.1 1423.18 L2177.06 1423.18 L2199.02 1423.18 L2220.99 1423.18 L2242.95 1423.18 L2264.91 1423.18 L2286.87 1423.18 L2308.83 1423.18 L2330.79 1423.18 L2352.76 1423.18 L2352.76 1423.18 L2330.79 1423.18 L2308.83 1423.18 L2286.87 1423.18 L2264.91 1423.18 L2242.95 1423.18 L2220.99 1423.18 L2199.02 1423.18 L2177.06 1423.18 L2155.1 1423.18 L2133.14 1423.18 L2111.18 1423.18 L2089.22 1423.18 L2067.26 1423.18 L2045.29 1423.18 L2023.33 1423.18 L2001.37 1423.18 L1979.41 1423.18 L1957.45 1423.18 L1935.49 1423.18 L1913.52 1423.18 L1891.56 1423.18 L1869.6 1423.18 L1847.64 1423.18 L1825.68 1423.18 L1803.72 1423.18 L1781.75 1423.18 L1759.79 1423.18 L1737.83 1423.18 L1715.87 1423.18 L1693.91 1423.18 L1671.95 1423.18 L1649.99 1423.18 L1628.02 1423.18 L1606.06 1423.18 L1584.1 1423.18 L1562.14 1423.18 L1540.18 1423.18 L1518.22 1423.18 L1496.25 1423.18 L1474.29 1423.18 L1452.33 1423.18 L1430.37 1423.18 L1408.41 1423.18 L1386.45 1423.18 L1364.48 1423.18 L1342.52 1423.18 L1320.56 1423.18 L1298.6 1423.18 L1276.64 1423.18 L1254.68 1423.18 L1232.72 1423.18 L1210.75 1423.18 L1188.79 1423.18 L1166.83 1423.18 L1144.87 1423.18 L1122.91 1423.18 L1100.95 1423.18 L1078.98 1423.18 L1057.02 1423.18 L1035.06 1423.18 L1013.1 1423.18 L991.138 1423.18 L969.177 1423.18 L947.215 1423.18 L925.253 1423.18 L903.292 1423.18 L881.33 1423.18 L859.369 1423.18 L837.407 1423.18 L815.446 1423.18 L793.484 1423.18 L771.522 1423.18 L749.561 1423.18 L727.599 1423.18 L705.638 1423.18 L683.676 1423.18 L661.714 1423.18 L639.753 1423.18 L617.791 1423.18 L595.83 1423.18 L573.868 1423.18 L551.907 1423.18 L529.945 1423.18 L507.983 1423.18 L486.022 1423.18 L464.06 1423.18 L442.099 1423.18 L420.137 1423.18 L398.176 1423.18 L376.214 1423.18 L354.252 1423.18 L332.291 1423.18 L310.329 1423.18 L288.368 1423.18 L266.406 1423.18 L244.445 1423.18 L222.483 1423.18 L200.521 1423.18 L178.56 1423.18 L156.598 1423.18  Z" fill="#e69f00" fill-rule="evenodd" fill-opacity="0.7"/>
<polyline clip-path="url(#clip272)" style="stroke:#e69f00; stroke-linecap:round; stroke-linejoin:round; stroke-width:4; stroke-opacity:0.7; fill:none" points="156.598,1423.18 178.56,1423.18 200.521,1423.18 222.483,1423.18 244.445,1423.18 266.406,1423.18 288.368,1423.17 310.329,1423.17 332.291,1423.16 354.252,1423.14 376.214,1423.11 398.176,1423.06 420.137,1422.98 442.099,1422.84 464.06,1422.63 486.022,1422.29 507.983,1421.77 529.945,1420.98 551.907,1419.8 573.868,1418.05 595.83,1415.52 617.791,1411.9 639.753,1406.83 661.714,1399.83 683.676,1390.32 705.638,1377.62 727.599,1360.97 749.561,1339.47 771.522,1312.23 793.484,1278.29 815.446,1236.78 837.407,1186.94 859.369,1128.21 881.33,1060.33 903.292,983.455 925.253,898.194 947.215,805.695 969.177,707.666 991.138,606.369 1013.1,504.556 1035.06,405.371 1057.02,312.197 1078.98,228.475 1100.95,157.492 1122.91,102.174 1144.87,64.8813 1166.83,47.2441 1188.79,50.0441 1210.75,73.1567 1232.72,115.561 1254.68,175.412 1276.64,250.178 1298.6,336.814 1320.56,431.97 1342.52,532.2 1364.48,634.17 1386.45,734.83 1408.41,831.552 1430.37,922.224 1452.33,1005.29 1474.29,1079.75 1496.25,1145.13 1518.22,1201.4 1540.18,1248.9 1562.14,1288.26 1584.1,1320.28 1606.06,1345.87 1628.02,1365.95 1649.99,1381.45 1671.95,1393.2 1693.91,1401.96 1715.87,1408.38 1737.83,1413.01 1759.79,1416.3 1781.75,1418.59 1803.72,1420.17 1825.68,1421.23 1847.64,1421.94 1869.6,1422.4 1891.56,1422.7 1913.52,1422.89 1935.49,1423 1957.45,1423.08 1979.41,1423.12 2001.37,1423.14 2023.33,1423.16 2045.29,1423.17 2067.26,1423.17 2089.22,1423.18 2111.18,1423.18 2133.14,1423.18 2155.1,1423.18 2177.06,1423.18 2199.02,1423.18 2220.99,1423.18 2242.95,1423.18 2264.91,1423.18 2286.87,1423.18 2308.83,1423.18 2330.79,1423.18 2352.76,1423.18 "/>
</svg>
